<svg id="svg" version="1.1" xmlns="http://www.w3.org/2000/svg" xmlns:xlink="http://www.w3.org/1999/xlink" width="400" height="369.94219653179186" viewBox="0, 0, 400,369.94219653179186"><g id="svgg"><path id="path0" d="M0.000 185.014 L 0.000 370.028 200.000 370.028 L 400.000 370.028 400.000 185.014 L 400.000 0.000 200.000 0.000 L 0.000 0.000 0.000 185.014 M129.904 61.683 C 131.621 62.524,133.608 63.394,134.320 63.617 C 135.889 64.108,140.241 68.404,140.241 69.462 C 140.241 70.270,136.395 74.493,135.311 74.875 C 134.554 75.142,133.418 74.635,132.225 73.498 C 131.785 73.078,129.953 72.204,128.155 71.556 C 126.356 70.907,123.904 70.018,122.707 69.580 C 120.088 68.622,116.485 68.979,113.623 70.479 C 112.694 70.966,111.517 71.478,111.008 71.617 C 107.537 72.565,102.456 78.330,101.645 82.242 C 100.866 86.001,100.101 90.403,100.151 90.842 C 100.196 91.231,101.511 96.521,102.150 98.885 C 102.356 99.646,103.079 100.811,103.756 101.475 C 104.433 102.139,105.264 103.223,105.601 103.883 C 105.970 104.604,106.914 105.463,107.964 106.033 C 108.926 106.554,110.581 107.530,111.642 108.201 C 115.455 110.612,127.254 110.316,128.882 107.767 C 129.046 107.511,129.909 106.929,130.799 106.472 C 133.415 105.132,136.039 101.838,136.362 99.487 C 136.780 96.446,136.296 96.211,129.561 96.191 C 120.084 96.163,117.269 94.441,118.730 89.565 C 119.638 86.533,120.096 86.419,131.915 86.280 C 143.177 86.147,144.957 86.436,147.025 88.735 C 148.561 90.442,148.070 97.776,146.176 101.415 C 145.559 102.601,144.721 104.453,144.314 105.532 C 143.322 108.159,138.302 113.628,135.661 114.959 C 134.618 115.484,133.324 116.224,132.786 116.604 C 128.834 119.391,111.266 119.402,107.205 116.620 C 106.346 116.031,104.894 115.176,103.978 114.719 C 103.062 114.261,101.608 113.198,100.747 112.355 C 99.886 111.513,98.637 110.296,97.972 109.651 C 95.718 107.467,94.011 105.069,93.596 103.503 C 93.211 102.053,92.292 99.960,91.072 97.755 C 89.519 94.949,89.999 83.638,91.821 80.112 C 92.452 78.891,93.169 77.226,93.414 76.411 C 93.969 74.572,97.900 69.293,99.940 67.647 C 100.776 66.972,102.017 65.954,102.697 65.384 C 103.377 64.814,104.976 63.938,106.251 63.439 C 107.527 62.939,109.163 62.119,109.888 61.617 C 111.729 60.341,114.359 59.976,121.024 60.071 L 126.783 60.154 129.904 61.683 M173.093 78.449 C 174.651 79.399,174.859 79.999,174.290 81.896 C 173.024 86.120,172.539 86.586,169.414 86.586 C 166.452 86.586,165.624 87.003,162.736 89.943 C 159.273 93.469,159.390 92.965,159.143 105.336 C 158.927 116.115,158.926 116.132,158.030 117.085 C 156.748 118.448,153.009 118.483,151.454 117.146 L 150.416 116.253 150.298 100.402 C 150.131 78.075,150.131 78.076,154.663 78.076 C 156.766 78.076,157.009 78.169,158.505 79.547 L 160.101 81.019 161.364 80.062 C 164.650 77.574,170.367 76.787,173.093 78.449 M200.482 78.223 C 201.032 78.507,201.811 79.104,202.214 79.549 C 202.616 79.993,203.448 80.568,204.063 80.826 C 205.834 81.568,207.556 83.214,208.723 85.282 C 209.316 86.333,210.211 87.579,210.713 88.049 C 212.106 89.359,212.486 92.043,212.330 99.488 C 212.189 106.192,211.955 107.327,210.381 108.900 C 210.077 109.204,209.362 110.247,208.791 111.219 C 206.846 114.530,202.012 117.635,197.709 118.338 C 193.747 118.986,185.885 118.560,184.163 117.605 C 180.097 115.348,175.714 111.056,174.864 108.496 C 174.522 107.467,174.002 106.426,173.709 106.182 C 171.540 104.382,171.522 92.117,173.686 90.322 C 173.967 90.089,174.570 88.735,175.028 87.312 C 175.690 85.253,176.037 84.682,176.730 84.508 C 177.209 84.388,177.953 83.719,178.384 83.021 C 178.815 82.324,179.859 81.406,180.703 80.983 C 181.548 80.559,182.579 79.901,182.995 79.521 C 184.929 77.754,197.736 76.803,200.482 78.223 M219.030 78.724 C 221.342 79.903,222.393 81.678,222.949 85.344 C 223.270 87.466,223.839 89.405,224.562 90.842 C 225.280 92.268,225.935 94.490,226.395 97.058 C 227.351 102.402,227.630 102.587,229.040 98.817 C 229.496 97.598,230.081 96.424,230.340 96.209 C 230.886 95.756,232.114 91.823,232.701 88.649 C 232.923 87.442,233.498 85.860,233.978 85.133 C 234.458 84.406,235.151 82.906,235.517 81.799 C 236.513 78.791,237.403 78.076,240.150 78.076 C 244.445 78.076,247.135 80.740,247.742 85.598 C 247.982 87.520,248.348 88.438,250.373 92.203 C 250.667 92.748,251.156 94.623,251.461 96.369 C 252.329 101.345,252.371 101.398,253.752 99.289 C 254.395 98.306,255.274 97.071,255.704 96.544 C 256.264 95.857,256.633 94.545,257.005 91.918 C 257.631 87.492,257.996 86.174,258.971 84.804 C 259.380 84.229,259.915 82.964,260.160 81.993 C 260.922 78.966,261.978 78.076,264.805 78.076 C 269.489 78.076,270.472 82.169,267.425 88.992 C 266.698 90.620,265.903 93.117,265.657 94.542 C 265.120 97.659,264.798 98.583,263.656 100.278 C 263.104 101.095,262.505 102.987,262.030 105.412 C 261.541 107.902,260.953 109.739,260.356 110.642 C 259.849 111.408,259.166 112.957,258.838 114.085 C 257.845 117.502,257.210 118.039,254.164 118.039 C 249.364 118.039,247.760 116.415,246.398 110.172 C 245.981 108.262,245.181 105.939,244.576 104.882 C 243.533 103.058,243.035 101.265,242.553 97.595 C 241.952 93.013,238.276 97.370,237.012 104.163 C 236.627 106.229,235.991 108.196,235.335 109.344 C 234.754 110.362,234.008 112.385,233.677 113.839 C 232.942 117.068,232.282 117.740,229.624 117.960 C 224.397 118.393,222.608 117.038,221.585 111.865 C 221.165 109.741,220.399 107.327,219.740 106.050 C 219.110 104.831,218.306 102.343,217.919 100.418 C 217.486 98.267,216.794 96.205,216.078 94.937 C 215.337 93.624,214.742 91.818,214.397 89.838 C 213.751 86.127,213.559 85.454,212.938 84.736 C 212.106 83.774,211.679 80.428,212.279 79.570 C 213.297 78.118,216.945 77.661,219.030 78.724 M189.201 86.573 C 188.552 86.727,187.465 87.418,186.784 88.108 C 186.103 88.797,185.185 89.644,184.745 89.989 C 184.304 90.334,183.763 91.284,183.544 92.101 C 183.324 92.917,182.993 93.679,182.810 93.792 C 181.965 94.314,182.014 97.898,182.918 101.685 C 186.168 115.307,204.216 111.459,203.424 97.312 C 202.993 89.596,196.643 84.802,189.201 86.573 M157.780 148.897 C 160.851 150.180,162.357 154.596,160.366 156.480 C 159.778 157.036,158.770 158.105,158.126 158.856 C 155.858 161.501,152.250 160.623,150.291 156.949 L 149.113 154.738 149.663 152.626 C 150.665 148.782,153.923 147.285,157.780 148.897 M200.396 149.885 C 201.289 150.725,201.295 150.777,201.295 158.025 C 201.295 167.609,201.676 168.139,206.475 165.235 C 209.058 163.672,209.636 163.549,212.614 163.926 C 215.998 164.356,222.178 167.122,222.579 168.387 C 222.713 168.808,223.539 169.958,224.414 170.944 C 226.522 173.317,226.616 174.179,226.529 190.302 C 226.456 203.977,226.354 204.800,224.627 205.724 C 223.554 206.299,220.965 206.182,219.823 205.507 C 217.778 204.299,217.776 204.287,217.570 191.119 C 217.358 177.600,217.369 177.662,214.906 175.644 C 211.801 173.100,208.473 173.114,204.889 175.685 C 201.574 178.065,201.519 178.306,201.301 191.692 C 201.093 204.430,200.974 205.111,198.885 205.545 C 198.379 205.650,197.542 205.824,197.025 205.931 C 195.677 206.212,192.931 204.884,192.128 203.563 C 191.406 202.376,191.437 205.512,191.653 155.889 C 191.676 150.641,191.878 150.075,194.080 149.085 C 195.479 148.456,199.403 148.953,200.396 149.885 M175.765 154.303 C 177.796 155.339,179.093 157.365,179.093 159.501 C 179.093 163.748,180.997 166.393,183.485 165.603 C 185.460 164.976,187.234 167.158,187.234 170.213 C 187.234 173.644,186.466 174.427,182.769 174.763 C 181.840 174.848,180.633 175.210,180.087 175.568 L 179.093 176.218 179.102 184.409 C 179.114 195.704,179.398 196.597,183.167 197.192 C 187.495 197.876,189.074 204.028,185.520 206.356 C 182.687 208.213,173.286 205.527,171.906 202.467 C 171.533 201.639,170.938 200.652,170.585 200.273 C 169.021 198.594,168.959 198.131,168.800 186.966 C 168.629 175.002,168.823 175.868,165.997 174.440 C 164.509 173.688,162.723 171.547,162.275 169.977 C 162.013 169.062,164.042 166.912,166.170 165.850 C 167.847 165.013,168.731 163.172,168.732 160.517 C 168.733 157.696,169.246 156.725,171.642 155.009 C 173.996 153.323,173.883 153.343,175.765 154.303 M97.132 166.090 C 100.147 167.951,101.128 169.683,101.754 174.258 C 102.187 177.417,102.833 179.450,104.086 181.590 C 104.473 182.250,104.949 184.079,105.145 185.654 C 105.768 190.673,107.080 191.023,107.675 186.331 C 107.950 184.161,108.368 182.848,109.330 181.128 C 110.210 179.554,110.788 177.846,111.158 175.723 C 113.549 162.020,124.832 161.806,126.888 175.425 C 127.158 177.217,127.753 179.038,128.601 180.676 C 129.501 182.413,130.005 184.006,130.240 185.862 C 130.427 187.336,130.730 188.947,130.913 189.442 L 131.246 190.342 131.891 189.358 C 132.245 188.817,132.682 187.209,132.861 185.785 C 133.070 184.117,133.576 182.464,134.282 181.140 C 134.885 180.010,135.557 178.171,135.775 177.054 C 135.992 175.937,136.348 174.109,136.566 172.992 C 137.539 167.996,140.964 164.915,144.424 165.921 C 148.086 166.985,148.578 168.862,146.424 173.543 C 145.721 175.069,144.878 177.682,144.550 179.349 C 144.221 181.015,143.636 183.097,143.249 183.974 C 142.184 186.384,141.451 188.934,140.819 192.414 C 140.407 194.687,139.942 195.996,139.143 197.131 C 138.432 198.142,137.911 199.483,137.685 200.887 C 136.487 208.327,126.143 207.780,125.289 200.231 C 125.126 198.786,124.593 197.178,123.752 195.595 C 122.757 193.719,122.292 192.144,121.697 188.630 C 120.805 183.361,121.075 183.886,119.073 183.520 C 117.261 183.188,117.075 183.351,116.739 185.561 C 115.870 191.266,115.290 193.655,114.488 194.837 C 113.481 196.321,112.638 198.844,112.308 201.362 C 111.886 204.581,108.746 206.530,104.982 205.909 C 101.820 205.387,100.860 204.362,100.304 200.912 C 100.075 199.492,99.514 197.971,98.818 196.887 C 98.103 195.773,97.489 194.085,97.116 192.207 C 96.495 189.077,95.779 186.616,94.693 183.875 C 94.323 182.943,93.692 180.671,93.289 178.826 C 92.886 176.980,92.029 174.424,91.383 173.146 C 89.442 169.300,89.929 167.093,92.955 166.022 C 95.085 165.269,95.820 165.281,97.132 166.090 M157.552 166.350 C 159.475 167.697,159.483 167.779,159.469 186.013 C 159.455 204.178,159.490 203.832,157.514 205.381 C 155.499 206.961,151.303 205.660,150.595 203.236 C 149.774 200.424,150.276 168.226,151.156 167.247 C 152.538 165.712,155.956 165.232,157.552 166.350 M126.507 235.370 C 133.004 236.439,134.335 236.792,135.882 237.857 C 136.755 238.458,138.252 239.317,139.208 239.767 C 140.572 240.407,141.190 241.015,142.074 242.580 C 143.470 245.053,143.551 244.619,141.258 246.945 C 139.003 249.234,138.379 249.535,137.365 248.824 C 136.958 248.539,135.043 247.733,133.109 247.033 C 131.175 246.333,129.033 245.469,128.349 245.112 C 125.635 243.698,118.807 243.847,116.208 245.379 C 115.506 245.792,113.853 246.536,112.535 247.032 C 108.482 248.558,106.282 251.023,102.410 258.375 C 100.848 261.341,101.205 271.325,102.975 274.170 C 103.425 274.893,104.292 276.475,104.903 277.686 C 106.121 280.100,111.267 284.898,113.452 285.655 C 117.454 287.042,124.306 287.802,126.651 287.118 C 127.918 286.748,129.917 286.180,131.093 285.855 C 132.663 285.422,133.764 284.783,135.231 283.454 C 136.330 282.459,137.573 281.460,137.994 281.235 C 139.498 280.430,141.766 274.212,140.925 273.198 C 140.154 272.269,137.746 271.974,130.912 271.972 C 122.780 271.970,122.514 271.860,122.437 268.478 C 122.377 265.846,122.468 265.302,123.218 263.832 L 123.880 262.535 136.223 262.553 C 152.119 262.576,151.329 262.138,151.633 271.093 C 151.855 277.628,151.665 278.664,149.886 280.607 C 149.111 281.453,148.102 282.895,147.644 283.811 C 147.186 284.727,146.290 285.996,145.653 286.631 C 145.017 287.266,144.062 288.265,143.532 288.851 C 141.724 290.849,139.276 292.619,136.711 293.782 C 135.303 294.420,133.784 295.287,133.336 295.707 C 131.120 297.790,114.962 297.405,112.011 295.200 C 111.358 294.712,109.741 293.927,108.418 293.455 C 106.971 292.939,105.328 291.991,104.293 291.072 C 103.346 290.233,101.541 288.631,100.281 287.512 C 99.021 286.392,97.737 284.977,97.428 284.366 C 97.119 283.756,96.306 282.671,95.621 281.956 C 94.709 281.002,94.181 279.917,93.641 277.886 C 93.235 276.362,92.486 273.950,91.975 272.525 C 90.546 268.542,90.613 263.040,92.137 259.204 C 92.747 257.667,93.247 256.195,93.247 255.932 C 93.247 254.570,94.542 251.411,95.594 250.209 C 96.251 249.458,97.217 248.178,97.742 247.364 C 99.182 245.130,104.579 239.892,105.737 239.607 C 106.296 239.469,107.502 238.878,108.418 238.295 C 112.217 235.876,120.975 234.460,126.507 235.370 M290.318 236.672 C 293.174 238.028,293.236 238.360,293.334 252.914 C 293.430 267.078,293.578 269.473,294.410 270.305 C 295.322 271.218,295.494 270.988,296.143 267.993 C 296.605 265.862,297.038 264.840,297.831 264.015 C 302.764 258.878,304.819 257.292,307.029 256.915 C 310.012 256.405,319.336 256.550,320.999 257.132 C 323.934 258.159,329.035 262.768,330.050 265.310 C 330.334 266.022,331.053 267.296,331.647 268.141 C 333.699 271.057,330.176 275.181,324.630 276.356 C 323.575 276.580,321.974 277.282,321.074 277.917 C 320.019 278.660,318.364 279.321,316.427 279.772 C 312.820 280.612,308.857 283.028,309.046 284.271 C 309.161 285.030,312.015 286.153,314.776 286.525 C 316.583 286.768,320.610 285.448,322.129 284.114 C 324.121 282.366,326.225 282.853,330.011 285.941 C 332.483 287.956,331.257 291.696,327.499 293.608 C 326.570 294.081,325.163 294.983,324.372 295.614 C 322.276 297.286,320.656 297.586,314.548 297.431 L 309.158 297.294 304.994 295.077 C 301.780 293.365,300.603 292.526,299.837 291.398 C 299.291 290.595,298.376 289.544,297.804 289.063 C 297.123 288.489,296.564 287.465,296.183 286.092 C 295.863 284.939,295.536 283.791,295.456 283.540 C 294.808 281.509,293.829 284.182,293.435 289.061 C 293.067 293.606,292.348 295.174,290.116 296.300 C 287.046 297.848,284.289 297.250,282.949 294.747 C 282.138 293.231,281.445 244.858,282.162 239.810 C 282.645 236.418,286.586 234.902,290.318 236.672 M181.684 257.198 C 182.396 257.440,183.478 258.097,184.089 258.658 C 184.699 259.219,185.568 259.789,186.019 259.925 C 187.261 260.299,190.493 263.788,190.983 265.283 C 191.221 266.010,192.036 267.312,192.794 268.177 C 194.112 269.681,194.635 271.033,194.635 272.942 C 194.635 275.116,195.999 273.922,196.249 271.528 C 196.880 265.487,204.901 257.827,211.713 256.762 C 215.628 256.149,223.078 256.518,224.752 257.407 C 226.821 258.506,232.905 263.662,233.491 264.813 C 233.785 265.392,234.398 266.476,234.853 267.223 C 237.869 272.176,238.234 282.216,235.529 285.846 C 235.075 286.457,234.246 287.872,233.688 288.992 C 232.515 291.345,232.153 291.676,227.986 294.212 C 219.121 299.607,209.058 298.483,202.590 291.375 C 201.166 289.809,199.309 287.831,198.464 286.978 C 197.056 285.557,196.122 283.539,196.117 281.903 C 196.113 280.871,194.705 281.539,194.451 282.693 C 194.327 283.258,193.485 284.848,192.580 286.226 C 191.675 287.604,190.934 288.931,190.934 289.175 C 190.934 289.931,186.741 293.661,185.569 293.947 C 184.958 294.097,183.804 294.740,183.004 295.377 C 179.479 298.183,168.294 298.412,164.545 295.755 C 163.694 295.152,162.051 294.230,160.894 293.707 C 159.304 292.987,158.547 292.364,157.788 291.151 C 157.237 290.269,156.242 288.939,155.577 288.195 C 153.541 285.917,152.481 272.672,154.038 268.962 C 155.006 266.656,158.784 261.237,159.785 260.718 C 160.331 260.435,161.323 259.682,161.990 259.044 C 164.540 256.604,176.614 255.472,181.684 257.198 M265.654 258.200 C 266.748 259.011,266.872 259.024,268.604 258.509 C 272.872 257.242,276.967 257.595,278.034 259.322 C 278.334 259.808,278.675 275.727,278.625 286.923 L 278.587 295.400 277.010 300.843 C 275.323 306.669,272.698 310.745,270.236 311.363 C 269.731 311.489,268.647 312.017,267.827 312.535 C 263.520 315.253,254.510 315.493,251.350 312.973 C 250.582 312.360,249.347 311.615,248.606 311.317 C 247.864 311.019,246.842 310.309,246.335 309.739 C 245.828 309.170,245.102 308.473,244.723 308.191 C 243.492 307.275,243.088 306.497,242.742 304.372 C 242.227 301.208,243.040 300.266,246.438 300.083 C 249.304 299.929,249.631 300.038,250.640 301.495 C 252.678 304.436,258.620 306.631,261.313 305.437 C 265.135 303.743,266.789 302.549,267.581 300.912 C 269.086 297.804,267.787 293.530,265.865 295.262 C 263.193 297.672,254.122 297.815,251.338 295.492 C 250.780 295.027,249.741 294.353,249.029 293.994 C 247.716 293.334,243.108 288.894,243.108 288.291 C 243.108 288.110,242.438 287.153,241.618 286.164 C 238.221 282.066,238.062 271.754,241.343 268.368 C 241.981 267.709,242.931 266.294,243.453 265.222 C 244.570 262.933,251.112 257.710,253.225 257.421 C 257.091 256.892,264.516 257.358,265.654 258.200 M253.855 267.360 C 247.436 273.483,247.892 283.089,254.764 286.494 C 259.224 288.703,260.779 288.643,264.984 286.095 C 270.055 283.022,270.636 272.765,265.979 268.510 C 262.983 265.771,262.647 265.617,259.233 265.404 L 256.110 265.209 253.855 267.360 M171.508 266.294 C 171.101 266.402,170.268 266.943,169.658 267.496 C 169.047 268.049,168.085 268.698,167.520 268.938 C 166.954 269.178,166.392 269.667,166.270 270.025 C 166.148 270.382,165.619 271.591,165.095 272.710 C 163.462 276.197,163.819 279.160,166.477 284.173 C 167.838 286.737,175.654 287.056,179.704 284.712 C 183.106 282.743,183.538 270.873,180.262 269.394 C 179.721 269.150,178.383 268.358,177.289 267.634 C 175.328 266.337,173.204 265.845,171.508 266.294 M212.106 267.790 C 204.986 272.584,205.407 282.801,212.843 285.669 L 215.900 286.848 218.601 286.254 C 223.894 285.091,224.622 284.422,225.328 280.068 C 227.030 269.579,219.641 262.718,212.106 267.790 M313.043 266.353 C 312.326 266.678,309.345 268.632,308.523 269.315 C 306.445 271.042,311.146 271.805,314.721 270.321 C 316.151 269.727,317.572 266.937,316.720 266.398 C 316.108 266.010,313.861 265.983,313.043 266.353 " stroke="none" fill="#fbfbfb" fill-rule="evenodd"></path><path id="path1" d="M115.634 62.560 C 106.616 64.819,100.283 68.731,97.706 73.636 C 97.332 74.348,96.682 75.242,96.262 75.622 C 94.619 77.107,92.337 86.682,92.679 90.657 C 93.064 95.138,94.993 102.091,96.250 103.526 C 96.835 104.193,97.632 105.358,98.022 106.116 C 98.879 107.780,104.401 112.787,105.987 113.338 C 106.612 113.555,108.372 114.410,109.898 115.238 L 112.673 116.744 119.917 116.744 L 127.161 116.744 129.353 115.405 C 130.558 114.669,132.417 113.782,133.483 113.434 C 134.625 113.062,135.764 112.378,136.258 111.769 C 136.718 111.201,137.546 110.450,138.096 110.101 C 138.647 109.751,139.528 108.730,140.055 107.831 C 140.581 106.933,141.141 106.198,141.298 106.198 C 142.304 106.198,143.810 101.673,144.870 95.467 C 145.973 89.016,146.270 89.174,132.997 89.163 C 122.046 89.154,119.840 89.504,120.471 91.150 C 120.973 92.456,123.519 92.963,129.263 92.899 C 137.141 92.812,139.191 93.643,139.761 97.157 C 139.919 98.127,139.758 98.696,139.063 99.625 C 138.566 100.289,137.930 101.415,137.649 102.128 C 136.764 104.367,135.707 105.700,133.645 107.174 C 132.545 107.960,131.088 109.038,130.406 109.570 C 126.364 112.721,111.841 112.224,108.233 108.811 C 107.623 108.233,106.585 107.490,105.927 107.158 C 105.269 106.827,104.480 106.072,104.175 105.481 C 103.869 104.890,103.130 104.058,102.532 103.632 C 101.891 103.175,101.184 102.140,100.807 101.105 C 100.456 100.141,99.595 98.047,98.893 96.452 C 97.727 93.802,97.618 93.252,97.637 90.098 C 97.666 85.347,97.550 85.781,100.792 78.348 C 101.975 75.635,105.491 71.670,107.472 70.816 C 108.298 70.460,109.935 69.590,111.111 68.883 C 113.066 67.707,113.573 67.578,117.032 67.370 C 123.446 66.984,125.641 67.409,130.250 69.927 C 131.966 70.865,134.664 72.155,134.907 72.155 C 135.194 72.155,137.280 69.817,137.280 69.496 C 137.280 65.770,122.160 60.926,115.634 62.560 M165.884 80.074 C 161.867 83.454,159.689 84.050,157.632 82.331 C 156.779 81.619,155.695 81.036,155.222 81.036 C 154.749 81.036,154.098 80.935,153.775 80.811 C 152.273 80.234,152.079 82.304,152.118 98.508 C 152.159 115.186,152.180 115.420,153.680 115.920 C 157.042 117.040,157.400 115.924,157.484 104.083 C 157.568 92.071,157.654 91.664,160.794 88.311 C 163.452 85.474,165.893 84.448,168.911 84.901 C 171.640 85.310,173.421 81.640,171.386 79.798 C 170.304 78.819,167.190 78.975,165.884 80.074 M187.372 79.896 C 186.532 80.277,185.745 80.751,185.622 80.949 C 185.500 81.148,184.384 81.690,183.144 82.154 C 181.687 82.698,180.678 83.338,180.295 83.959 C 179.968 84.488,179.095 85.504,178.353 86.216 C 176.668 87.836,174.646 94.549,174.664 98.466 C 174.694 104.715,178.147 111.522,182.434 113.784 C 183.205 114.191,184.549 115.023,185.419 115.634 L 187.001 116.744 192.826 116.744 C 198.311 116.744,198.712 116.695,199.696 115.911 C 200.270 115.453,201.656 114.477,202.775 113.743 C 205.673 111.841,206.411 111.087,207.623 108.788 C 208.214 107.669,209.028 106.337,209.433 105.828 C 211.566 103.147,211.449 92.677,209.260 90.287 C 208.794 89.778,208.084 88.612,207.683 87.697 C 206.910 85.931,203.209 82.146,202.255 82.146 C 201.945 82.146,201.114 81.640,200.409 81.021 C 198.256 79.130,190.527 78.463,187.372 79.896 M262.555 81.600 C 262.266 82.290,261.763 83.899,261.436 85.174 C 261.110 86.450,260.450 88.163,259.972 88.983 C 259.437 89.897,258.860 91.901,258.476 94.172 C 257.688 98.847,254.355 105.458,252.787 105.458 C 251.673 105.458,250.745 103.284,249.987 98.897 C 249.642 96.900,249.064 95.157,248.307 93.834 C 247.618 92.630,246.930 90.656,246.602 88.940 C 244.912 80.107,238.134 77.456,236.685 85.061 C 236.555 85.748,235.947 87.296,235.335 88.500 C 234.723 89.705,233.889 92.223,233.482 94.096 C 232.783 97.315,230.805 101.855,228.977 104.440 C 227.420 106.641,226.066 105.249,225.160 100.515 C 224.879 99.045,224.140 96.767,223.518 95.453 C 222.896 94.138,222.387 92.824,222.387 92.533 C 222.385 89.432,220.409 84.028,218.644 82.300 L 216.788 80.481 216.072 81.355 C 214.789 82.921,215.550 88.918,217.384 91.690 C 218.028 92.663,218.609 94.436,219.114 96.969 C 219.614 99.476,220.305 101.596,221.131 103.152 C 221.821 104.454,222.387 105.847,222.387 106.248 C 222.387 115.649,230.753 119.328,232.486 110.690 C 232.811 109.065,233.567 106.765,234.166 105.579 C 234.764 104.393,235.541 102.010,235.892 100.284 C 236.714 96.250,236.961 95.635,238.534 93.716 C 241.771 89.765,243.281 90.487,244.221 96.438 C 244.450 97.889,245.144 100.016,245.836 101.388 C 246.504 102.710,247.254 104.875,247.504 106.198 C 248.438 111.140,251.162 116.189,252.896 116.189 C 256.014 116.189,256.281 115.905,257.601 111.193 C 258.000 109.769,258.714 107.937,259.188 107.123 C 259.663 106.309,260.404 104.008,260.837 102.009 C 261.270 100.010,262.039 97.554,262.548 96.552 C 263.056 95.549,263.941 92.750,264.515 90.330 C 265.109 87.826,265.883 85.520,266.311 84.976 C 267.623 83.307,266.698 81.383,264.246 80.679 C 263.149 80.365,263.048 80.420,262.555 81.600 M198.649 85.312 C 199.415 85.619,200.329 86.361,200.687 86.966 C 201.044 87.570,201.980 88.582,202.768 89.215 C 206.549 92.254,206.255 103.186,202.271 107.714 C 194.075 117.030,180.216 111.134,179.571 98.057 L 179.379 94.172 180.565 92.692 C 181.217 91.878,181.977 90.670,182.254 90.007 C 182.751 88.818,184.705 86.752,186.477 85.542 C 188.270 84.317,195.807 84.175,198.649 85.312 M153.153 150.476 C 151.593 150.893,151.020 154.885,152.331 156.196 C 154.722 158.587,158.728 156.678,158.204 153.398 C 157.742 150.502,156.260 149.645,153.153 150.476 M195.149 150.603 C 193.941 151.077,193.967 150.502,193.942 176.969 C 193.915 205.255,193.778 203.897,196.601 203.368 C 198.806 202.954,198.889 202.559,198.898 192.414 C 198.904 186.667,199.064 182.807,199.336 181.869 C 199.571 181.055,199.952 179.439,200.182 178.278 C 200.475 176.803,200.893 175.911,201.569 175.318 C 202.102 174.850,203.170 173.841,203.942 173.075 C 207.270 169.773,211.737 169.922,216.144 173.484 C 219.264 176.005,219.202 175.686,219.354 189.814 C 219.507 203.905,219.426 203.515,222.202 203.515 C 225.056 203.515,224.977 203.897,224.977 190.101 C 224.977 176.560,224.914 176.133,222.289 171.878 C 219.159 166.806,211.388 165.380,204.303 168.576 C 199.268 170.848,199.145 170.648,198.923 159.889 C 198.796 153.696,198.630 151.486,198.266 151.147 C 197.579 150.506,196.068 150.242,195.149 150.603 M172.704 157.832 C 171.851 158.684,171.751 159.103,171.636 162.303 C 171.492 166.282,171.302 166.582,168.445 167.354 C 167.574 167.589,166.515 168.151,166.090 168.603 L 165.318 169.425 166.096 170.518 C 166.524 171.119,167.695 172.137,168.699 172.781 C 171.713 174.716,171.693 174.640,171.693 183.720 C 171.693 201.313,172.862 203.879,180.909 203.955 C 186.601 204.009,187.789 201.301,182.564 200.181 C 180.179 199.669,177.007 196.658,176.485 194.411 C 175.854 191.690,176.051 176.604,176.736 175.159 C 177.540 173.466,179.978 172.071,182.609 171.799 C 186.778 171.369,186.677 168.279,182.479 167.797 C 177.138 167.183,176.582 166.658,176.247 161.907 C 175.920 157.278,174.682 155.854,172.704 157.832 M116.578 168.343 C 116.182 168.739,115.665 169.779,115.430 170.652 C 115.195 171.526,114.715 172.659,114.365 173.170 C 113.439 174.519,112.974 175.926,112.287 179.463 C 111.951 181.193,111.299 183.358,110.839 184.274 C 110.378 185.190,109.805 186.758,109.564 187.760 C 108.366 192.752,106.781 194.934,105.487 193.375 C 104.924 192.696,102.910 187.537,102.511 185.754 C 102.352 185.042,102.019 183.959,101.770 183.349 C 101.521 182.738,101.018 180.561,100.650 178.510 C 100.227 176.142,99.564 173.952,98.835 172.508 C 98.204 171.257,97.687 170.005,97.687 169.726 C 97.687 168.156,94.746 167.445,93.253 168.654 L 92.436 169.315 93.183 170.781 C 93.594 171.588,94.210 173.663,94.552 175.393 C 94.895 177.123,95.733 179.704,96.415 181.129 C 97.272 182.917,97.783 184.693,98.068 186.864 C 98.344 188.974,98.903 190.951,99.767 192.872 C 100.475 194.446,101.337 197.038,101.684 198.632 C 102.563 202.681,102.994 203.224,105.479 203.402 C 109.095 203.661,110.273 202.413,111.318 197.213 C 111.720 195.212,112.534 192.681,113.199 191.364 C 114.055 189.667,114.472 188.175,114.745 185.825 C 115.286 181.190,116.293 179.314,118.322 179.165 C 121.341 178.944,122.218 180.178,123.064 185.833 C 123.421 188.223,123.958 190.229,124.524 191.291 C 125.749 193.587,126.140 194.738,126.725 197.769 C 127.666 202.642,128.894 203.823,132.567 203.388 C 135.058 203.093,135.263 202.845,136.136 199.054 C 136.554 197.235,137.294 194.955,137.778 193.988 C 139.030 191.491,139.445 190.045,139.867 186.709 C 140.127 184.660,140.626 182.991,141.528 181.159 C 142.293 179.603,143.107 177.088,143.530 174.968 C 143.923 173.005,144.529 170.964,144.876 170.434 C 145.670 169.223,145.175 168.489,143.334 168.143 C 141.740 167.844,140.899 168.530,140.265 170.648 C 140.012 171.491,139.394 172.833,138.890 173.630 C 138.281 174.596,137.796 176.214,137.438 178.474 C 136.916 181.774,136.193 184.326,134.488 188.899 C 134.033 190.120,133.546 191.498,133.407 191.962 C 132.387 195.357,130.257 193.985,128.915 189.069 C 128.389 187.144,127.572 184.733,127.100 183.712 C 126.627 182.690,125.975 180.443,125.650 178.716 C 125.325 176.990,124.566 174.579,123.963 173.358 C 123.360 172.137,122.621 170.512,122.321 169.748 C 121.486 167.623,118.122 166.800,116.578 168.343 M152.694 168.669 C 151.888 169.560,151.746 201.813,152.544 202.886 C 153.235 203.816,156.463 203.862,157.129 202.951 C 157.766 202.081,157.878 169.884,157.249 168.708 C 156.719 167.718,153.579 167.691,152.694 168.669 M285.661 239.508 C 283.952 240.389,283.762 241.414,283.773 249.685 C 283.779 253.903,283.783 264.968,283.783 274.274 C 283.783 294.155,283.719 293.802,287.327 293.802 C 288.321 293.802,288.706 293.567,289.308 292.594 C 290.429 290.780,290.526 242.596,289.413 240.511 C 288.636 239.058,287.251 238.688,285.661 239.508 " stroke="none" fill="#6b756f" fill-rule="evenodd"></path><path id="path2" d="M116.374 235.934 C 112.993 236.442,111.307 236.999,108.973 238.378 C 103.524 241.598,98.931 245.528,97.609 248.104 C 97.191 248.918,96.360 250.205,95.763 250.964 C 93.897 253.335,91.027 261.912,91.027 265.115 C 91.027 269.600,93.487 277.719,95.801 280.874 C 96.183 281.395,97.013 282.810,97.646 284.019 C 98.412 285.483,99.483 286.772,100.857 287.882 C 101.991 288.797,103.646 290.153,104.535 290.895 C 105.424 291.636,106.953 292.532,107.933 292.886 C 108.912 293.239,110.771 294.005,112.063 294.588 C 117.185 296.898,128.266 297.050,132.553 294.868 C 133.311 294.482,134.976 293.787,136.253 293.323 C 139.981 291.969,145.970 286.750,147.168 283.811 C 147.459 283.099,148.473 280.851,149.422 278.816 L 151.148 275.116 151.152 270.860 C 151.158 264.589,150.826 264.177,144.916 263.118 C 143.722 262.904,142.575 262.834,142.367 262.963 C 142.159 263.091,138.557 263.254,134.362 263.325 C 123.744 263.504,122.582 263.948,122.730 267.764 C 122.866 271.283,123.474 271.522,132.958 271.789 C 140.757 272.008,141.826 272.531,140.969 275.712 C 139.464 281.302,135.630 284.761,128.982 286.530 L 124.333 287.766 119.058 286.902 C 111.184 285.613,107.140 282.903,104.637 277.237 C 104.212 276.274,103.470 274.890,102.989 274.163 C 97.690 266.145,103.282 250.758,112.941 246.774 C 114.418 246.165,115.996 245.425,116.448 245.129 C 119.408 243.190,127.082 243.645,131.915 246.047 C 138.088 249.115,139.064 249.113,140.754 246.030 C 141.629 244.432,140.828 240.886,139.398 240.030 C 135.032 237.416,133.867 236.846,132.100 236.459 C 130.052 236.011,118.442 235.624,116.374 235.934 M285.405 239.110 C 284.959 239.325,284.494 239.763,284.372 240.082 C 284.181 240.580,284.246 240.574,284.831 240.044 C 285.207 239.705,286.171 239.273,286.975 239.085 C 288.284 238.778,288.321 238.741,287.327 238.730 C 286.716 238.723,285.852 238.894,285.405 239.110 M283.474 259.574 C 283.425 260.999,283.322 262.498,283.246 262.905 C 282.540 266.687,283.386 291.816,284.253 292.810 C 284.951 293.609,284.952 293.604,284.327 292.322 C 283.755 291.149,283.713 289.704,283.883 276.966 C 283.985 269.232,283.956 261.573,283.817 259.944 L 283.564 256.984 283.474 259.574 M253.033 257.869 C 252.284 258.026,251.285 258.434,250.812 258.776 C 250.340 259.118,249.371 259.803,248.659 260.298 C 238.863 267.109,237.272 282.536,245.547 290.472 C 251.663 296.336,258.641 298.118,264.261 295.251 C 269.264 292.698,269.955 300.731,265.021 304.078 C 259.820 307.606,256.273 307.125,251.128 302.195 C 249.283 300.427,249.250 300.413,247.390 300.657 C 242.092 301.353,241.600 304.221,246.039 308.544 C 251.284 313.652,255.291 315.108,261.732 314.246 C 274.018 312.602,278.219 304.705,277.794 284.049 C 277.679 278.471,277.746 272.566,277.944 270.768 C 279.075 260.524,276.800 257.082,269.791 258.436 C 266.700 259.034,266.435 259.034,265.080 258.436 C 263.484 257.732,255.481 257.355,253.033 257.869 M290.220 266.790 C 290.220 268.113,290.287 268.654,290.369 267.993 C 290.452 267.331,290.452 266.249,290.369 265.587 C 290.287 264.926,290.220 265.467,290.220 266.790 M262.865 265.665 C 264.829 266.411,267.777 269.821,268.432 272.104 C 271.678 283.410,264.233 291.286,254.755 286.573 C 249.504 283.963,246.957 276.402,249.958 272.334 C 250.465 271.648,250.879 270.889,250.879 270.648 C 250.879 269.894,255.156 265.662,256.282 265.303 C 257.471 264.924,261.498 265.145,262.865 265.665 " stroke="none" fill="#6e91c7" fill-rule="evenodd"></path><path id="path3" d="M213.691 257.956 C 209.162 258.524,207.962 259.238,202.168 264.815 C 198.200 268.634,197.470 270.395,197.434 276.226 C 197.396 282.650,197.620 283.427,200.301 286.151 C 201.560 287.430,203.598 289.577,204.831 290.924 C 206.642 292.903,207.351 293.420,208.531 293.623 C 209.334 293.762,210.990 294.131,212.211 294.443 C 217.108 295.696,220.770 295.264,225.751 292.845 C 230.903 290.344,230.967 290.283,233.440 285.528 L 235.338 281.879 235.338 278.264 C 235.338 274.713,234.103 270.009,232.280 266.614 C 231.380 264.939,224.291 258.694,222.843 258.300 C 221.126 257.834,216.156 257.647,213.691 257.956 M166.963 258.273 C 165.897 258.526,164.338 259.473,160.605 262.137 C 159.624 262.838,157.157 266.272,156.066 268.455 C 155.061 270.466,154.602 283.015,155.472 284.686 C 156.306 286.288,159.891 290.819,160.873 291.513 C 167.388 296.115,173.993 297.093,180.249 294.382 C 181.846 293.689,183.653 293.013,184.265 292.879 C 185.951 292.509,189.291 289.144,190.145 286.957 C 190.542 285.939,191.294 284.107,191.817 282.886 C 195.432 274.438,188.343 260.358,179.440 258.306 C 177.547 257.869,168.763 257.846,166.963 258.273 M308.713 258.298 C 306.825 258.671,305.836 259.170,304.242 260.554 C 303.574 261.135,302.896 261.610,302.736 261.610 C 301.264 261.610,298.174 266.573,297.108 270.651 C 294.327 281.285,297.831 289.790,306.660 293.835 L 311.008 295.827 315.264 295.816 L 319.519 295.804 323.324 293.838 C 328.769 291.023,330.282 288.641,327.701 286.949 C 325.827 285.722,323.434 285.826,320.073 287.283 C 315.258 289.369,311.420 288.829,307.958 285.576 C 305.482 283.251,308.384 280.078,314.154 278.803 C 315.680 278.466,317.761 277.731,318.779 277.171 C 319.796 276.610,321.628 275.781,322.849 275.328 C 325.157 274.472,328.655 272.032,329.565 270.643 C 331.221 268.115,324.066 259.645,319.149 258.314 C 317.448 257.854,311.012 257.843,308.713 258.298 M221.248 265.485 C 226.559 267.359,228.562 273.315,226.645 281.535 C 225.769 285.293,224.944 286.102,220.352 287.712 C 216.072 289.212,215.337 289.180,211.680 287.339 C 203.562 283.251,202.593 274.841,209.436 267.869 C 212.714 264.528,216.418 263.781,221.248 265.485 M318.142 265.563 C 318.981 266.189,319.120 266.538,319.016 267.751 C 318.790 270.366,317.774 271.242,314.080 272.006 C 313.001 272.229,311.268 272.883,310.229 273.459 C 306.113 275.741,304.314 275.135,304.958 271.682 C 305.890 266.681,314.369 262.746,318.142 265.563 M176.722 265.267 C 180.369 266.313,182.894 269.265,183.767 273.507 C 185.949 284.111,177.831 291.689,168.956 287.330 C 164.037 284.914,162.321 282.378,162.129 277.247 L 162.000 273.810 163.781 271.205 C 167.499 265.762,171.712 263.830,176.722 265.267 " stroke="none" fill="#df8553" fill-rule="evenodd"></path><path id="path4" d="M113.235 60.346 C 112.119 60.542,110.613 61.114,109.888 61.617 C 109.163 62.119,107.527 62.939,106.251 63.439 C 104.976 63.938,103.377 64.814,102.697 65.384 C 102.017 65.954,100.776 66.972,99.940 67.647 C 97.900 69.293,93.969 74.572,93.414 76.411 C 93.169 77.226,92.452 78.891,91.821 80.112 C 89.999 83.638,89.519 94.949,91.072 97.755 C 92.292 99.960,93.211 102.053,93.596 103.503 C 94.011 105.069,95.718 107.467,97.972 109.651 C 98.637 110.296,99.886 111.513,100.747 112.355 C 101.608 113.198,103.062 114.261,103.978 114.719 C 104.894 115.176,106.346 116.031,107.205 116.620 C 111.266 119.402,128.834 119.391,132.786 116.604 C 133.324 116.224,134.618 115.484,135.661 114.959 C 138.302 113.628,143.322 108.159,144.314 105.532 C 144.721 104.453,145.559 102.601,146.176 101.415 C 148.070 97.776,148.561 90.442,147.025 88.735 C 144.957 86.436,143.177 86.147,131.915 86.280 C 120.096 86.419,119.638 86.533,118.730 89.565 C 117.269 94.441,120.084 96.163,129.561 96.191 C 136.296 96.211,136.780 96.446,136.362 99.487 C 136.039 101.838,133.415 105.132,130.799 106.472 C 129.909 106.929,129.046 107.511,128.882 107.767 C 127.254 110.316,115.455 110.612,111.642 108.201 C 110.581 107.530,108.926 106.554,107.964 106.033 C 106.914 105.463,105.970 104.604,105.601 103.883 C 105.264 103.223,104.433 102.139,103.756 101.475 C 103.079 100.811,102.356 99.646,102.150 98.885 C 101.511 96.521,100.196 91.231,100.151 90.842 C 100.101 90.403,100.866 86.001,101.645 82.242 C 102.456 78.330,107.537 72.565,111.008 71.617 C 111.517 71.478,112.694 70.966,113.623 70.479 C 116.485 68.979,120.088 68.622,122.707 69.580 C 123.904 70.018,126.356 70.907,128.155 71.556 C 129.953 72.204,131.785 73.078,132.225 73.498 C 133.418 74.635,134.554 75.142,135.311 74.875 C 136.395 74.493,140.241 70.270,140.241 69.462 C 140.241 68.404,135.889 64.108,134.320 63.617 C 133.608 63.394,131.621 62.524,129.904 61.683 L 126.783 60.154 121.024 60.071 C 117.856 60.026,114.351 60.150,113.235 60.346 M128.289 63.772 C 133.356 65.325,137.280 67.824,137.280 69.496 C 137.280 69.817,135.194 72.155,134.907 72.155 C 134.664 72.155,131.966 70.865,130.250 69.927 C 125.641 67.409,123.446 66.984,117.032 67.370 C 113.573 67.578,113.066 67.707,111.111 68.883 C 109.935 69.590,108.298 70.460,107.472 70.816 C 105.491 71.670,101.975 75.635,100.792 78.348 C 97.550 85.781,97.666 85.347,97.637 90.098 C 97.618 93.252,97.727 93.802,98.893 96.452 C 99.595 98.047,100.456 100.141,100.807 101.105 C 101.184 102.140,101.891 103.175,102.532 103.632 C 103.130 104.058,103.869 104.890,104.175 105.481 C 104.480 106.072,105.269 106.827,105.927 107.158 C 106.585 107.490,107.623 108.233,108.233 108.811 C 111.841 112.224,126.364 112.721,130.406 109.570 C 131.088 109.038,132.545 107.960,133.645 107.174 C 135.707 105.700,136.764 104.367,137.649 102.128 C 137.930 101.415,138.566 100.289,139.063 99.625 C 139.758 98.696,139.919 98.127,139.761 97.157 C 139.191 93.643,137.141 92.812,129.263 92.899 C 123.519 92.963,120.973 92.456,120.471 91.150 C 119.840 89.504,122.046 89.154,132.997 89.163 C 146.270 89.174,145.973 89.016,144.870 95.467 C 143.810 101.673,142.304 106.198,141.298 106.198 C 141.141 106.198,140.581 106.933,140.055 107.831 C 139.528 108.730,138.647 109.751,138.096 110.101 C 137.546 110.450,136.718 111.201,136.258 111.769 C 135.764 112.378,134.625 113.062,133.483 113.434 C 132.417 113.782,130.558 114.669,129.353 115.405 L 127.161 116.744 119.917 116.744 L 112.673 116.744 109.898 115.238 C 108.372 114.410,106.612 113.555,105.987 113.338 C 104.401 112.787,98.879 107.780,98.022 106.116 C 97.632 105.358,96.835 104.193,96.250 103.526 C 91.950 98.618,91.958 79.514,96.262 75.622 C 96.682 75.242,97.332 74.348,97.706 73.636 C 100.283 68.731,106.616 64.819,115.634 62.560 C 118.397 61.868,123.753 62.381,128.289 63.772 M164.107 78.414 C 163.293 78.794,162.059 79.536,161.364 80.062 L 160.101 81.019 158.505 79.547 C 157.009 78.169,156.766 78.076,154.663 78.076 C 150.131 78.076,150.131 78.075,150.298 100.402 L 150.416 116.253 151.454 117.146 C 153.009 118.483,156.748 118.448,158.030 117.085 C 158.926 116.132,158.927 116.115,159.143 105.336 C 159.390 92.965,159.273 93.469,162.736 89.943 C 165.624 87.003,166.452 86.586,169.414 86.586 C 172.539 86.586,173.024 86.120,174.290 81.896 C 174.859 79.999,174.651 79.399,173.093 78.449 C 171.418 77.428,166.260 77.408,164.107 78.414 M185.215 78.294 C 184.410 78.589,183.411 79.141,182.995 79.521 C 182.579 79.901,181.548 80.559,180.703 80.983 C 179.859 81.406,178.815 82.324,178.384 83.021 C 177.953 83.719,177.209 84.388,176.730 84.508 C 176.037 84.682,175.690 85.253,175.028 87.312 C 174.570 88.735,173.967 90.089,173.686 90.322 C 171.522 92.117,171.540 104.382,173.709 106.182 C 174.002 106.426,174.522 107.467,174.864 108.496 C 175.714 111.056,180.097 115.348,184.163 117.605 C 185.885 118.560,193.747 118.986,197.709 118.338 C 202.012 117.635,206.846 114.530,208.791 111.219 C 209.362 110.247,210.077 109.204,210.381 108.900 C 213.060 106.221,213.310 90.490,210.713 88.049 C 210.211 87.579,209.316 86.333,208.723 85.282 C 207.556 83.214,205.834 81.568,204.063 80.826 C 203.448 80.568,202.616 79.993,202.214 79.549 C 200.697 77.873,199.851 77.704,193.080 77.732 C 188.468 77.751,186.270 77.908,185.215 78.294 M213.985 78.486 C 211.801 79.117,211.197 82.725,212.938 84.736 C 213.559 85.454,213.751 86.127,214.397 89.838 C 214.742 91.818,215.337 93.624,216.078 94.937 C 216.794 96.205,217.486 98.267,217.919 100.418 C 218.306 102.343,219.110 104.831,219.740 106.050 C 220.399 107.327,221.165 109.741,221.585 111.865 C 222.608 117.038,224.397 118.393,229.624 117.960 C 232.282 117.740,232.942 117.068,233.677 113.839 C 234.008 112.385,234.754 110.362,235.335 109.344 C 235.991 108.196,236.627 106.229,237.012 104.163 C 238.276 97.370,241.952 93.013,242.553 97.595 C 243.035 101.265,243.533 103.058,244.576 104.882 C 245.181 105.939,245.981 108.262,246.398 110.172 C 247.760 116.415,249.364 118.039,254.164 118.039 C 257.210 118.039,257.845 117.502,258.838 114.085 C 259.166 112.957,259.849 111.408,260.356 110.642 C 260.953 109.739,261.541 107.902,262.030 105.412 C 262.505 102.987,263.104 101.095,263.656 100.278 C 264.798 98.583,265.120 97.659,265.657 94.542 C 265.903 93.117,266.698 90.620,267.425 88.992 C 270.472 82.169,269.489 78.076,264.805 78.076 C 261.978 78.076,260.922 78.966,260.160 81.993 C 259.915 82.964,259.380 84.229,258.971 84.804 C 257.996 86.174,257.631 87.492,257.005 91.918 C 256.633 94.545,256.264 95.857,255.704 96.544 C 255.274 97.071,254.395 98.306,253.752 99.289 C 252.371 101.398,252.329 101.345,251.461 96.369 C 251.156 94.623,250.667 92.748,250.373 92.203 C 248.348 88.438,247.982 87.520,247.742 85.598 C 246.740 77.577,237.832 74.809,235.517 81.799 C 235.151 82.906,234.458 84.406,233.978 85.133 C 233.498 85.860,232.923 87.442,232.701 88.649 C 232.114 91.823,230.886 95.756,230.340 96.209 C 230.081 96.424,229.496 97.598,229.040 98.817 C 227.630 102.587,227.351 102.402,226.395 97.058 C 225.935 94.490,225.280 92.268,224.562 90.842 C 223.839 89.405,223.270 87.466,222.949 85.344 C 222.073 79.568,218.828 77.085,213.985 78.486 M171.386 79.798 C 173.421 81.640,171.640 85.310,168.911 84.901 C 165.893 84.448,163.452 85.474,160.794 88.311 C 157.654 91.664,157.568 92.071,157.484 104.083 C 157.400 115.924,157.042 117.040,153.680 115.920 C 152.180 115.420,152.159 115.186,152.118 98.508 C 152.079 82.304,152.273 80.234,153.775 80.811 C 154.098 80.935,154.749 81.036,155.222 81.036 C 155.695 81.036,156.779 81.619,157.632 82.331 C 159.689 84.050,161.867 83.454,165.884 80.074 C 167.190 78.975,170.304 78.819,171.386 79.798 M196.974 79.543 C 198.522 79.797,199.489 80.212,200.409 81.021 C 201.114 81.640,201.945 82.146,202.255 82.146 C 203.209 82.146,206.910 85.931,207.683 87.697 C 208.084 88.612,208.794 89.778,209.260 90.287 C 211.449 92.677,211.566 103.147,209.433 105.828 C 209.028 106.337,208.214 107.669,207.623 108.788 C 206.411 111.087,205.673 111.841,202.775 113.743 C 201.656 114.477,200.270 115.453,199.696 115.911 C 198.712 116.695,198.311 116.744,192.826 116.744 L 187.001 116.744 185.419 115.634 C 184.549 115.023,183.205 114.191,182.434 113.784 C 178.147 111.522,174.694 104.715,174.664 98.466 C 174.646 94.549,176.668 87.836,178.353 86.216 C 179.095 85.504,179.968 84.488,180.295 83.959 C 180.678 83.338,181.687 82.698,183.144 82.154 C 184.384 81.690,185.500 81.148,185.622 80.949 C 186.576 79.406,192.019 78.732,196.974 79.543 M266.062 81.602 C 267.066 82.511,267.168 83.887,266.311 84.976 C 265.883 85.520,265.109 87.826,264.515 90.330 C 263.941 92.750,263.056 95.549,262.548 96.552 C 262.039 97.554,261.270 100.010,260.837 102.009 C 260.404 104.008,259.663 106.309,259.188 107.123 C 258.714 107.937,258.000 109.769,257.601 111.193 C 256.281 115.905,256.014 116.189,252.896 116.189 C 251.162 116.189,248.438 111.140,247.504 106.198 C 247.254 104.875,246.504 102.710,245.836 101.388 C 245.144 100.016,244.450 97.889,244.221 96.438 C 243.281 90.487,241.771 89.765,238.534 93.716 C 236.961 95.635,236.714 96.250,235.892 100.284 C 235.541 102.010,234.764 104.393,234.166 105.579 C 233.567 106.765,232.811 109.065,232.486 110.690 C 230.753 119.328,222.387 115.649,222.387 106.248 C 222.387 105.847,221.821 104.454,221.131 103.152 C 220.305 101.596,219.614 99.476,219.114 96.969 C 218.609 94.436,218.028 92.663,217.384 91.690 C 215.550 88.918,214.789 82.921,216.072 81.355 L 216.788 80.481 218.644 82.300 C 220.409 84.028,222.385 89.432,222.387 92.533 C 222.387 92.824,222.896 94.138,223.518 95.453 C 224.140 96.767,224.879 99.045,225.160 100.515 C 226.066 105.249,227.420 106.641,228.977 104.440 C 230.805 101.855,232.783 97.315,233.482 94.096 C 233.889 92.223,234.723 89.705,235.335 88.500 C 235.947 87.296,236.555 85.748,236.685 85.061 C 238.134 77.456,244.912 80.107,246.602 88.940 C 246.930 90.656,247.618 92.630,248.307 93.834 C 249.064 95.157,249.642 96.900,249.987 98.897 C 250.745 103.284,251.673 105.458,252.787 105.458 C 254.355 105.458,257.688 98.847,258.476 94.172 C 258.860 91.901,259.437 89.897,259.972 88.983 C 260.450 88.163,261.110 86.450,261.436 85.174 C 262.705 80.220,263.693 79.458,266.062 81.602 M189.437 84.676 C 188.309 84.811,186.977 85.201,186.477 85.542 C 184.705 86.752,182.751 88.818,182.254 90.007 C 181.977 90.670,181.217 91.878,180.565 92.692 L 179.379 94.172 179.571 98.057 C 180.104 108.859,187.507 114.111,197.780 110.973 C 201.138 109.948,204.353 106.217,204.979 102.618 C 205.919 97.226,204.876 90.910,202.768 89.215 C 201.980 88.582,201.044 87.570,200.687 86.966 C 199.532 85.011,194.758 84.039,189.437 84.676 M196.368 86.608 C 197.794 87.144,200.355 89.685,201.936 92.132 C 208.663 102.542,194.944 115.764,185.993 107.497 C 182.949 104.686,180.719 95.084,182.810 93.792 C 182.993 93.679,183.324 92.917,183.544 92.101 C 183.763 91.284,184.304 90.334,184.745 89.989 C 185.185 89.644,186.103 88.797,186.784 88.108 C 188.520 86.349,193.574 85.558,196.368 86.608 M152.266 148.894 C 150.734 149.562,150.299 150.185,149.663 152.626 L 149.113 154.738 150.291 156.949 C 152.250 160.623,155.858 161.501,158.126 158.856 C 158.770 158.105,159.778 157.036,160.366 156.480 C 164.191 152.861,157.513 146.607,152.266 148.894 M194.080 149.085 C 191.878 150.075,191.676 150.641,191.653 155.889 C 191.437 205.512,191.406 202.376,192.128 203.563 C 192.931 204.884,195.677 206.212,197.025 205.931 C 197.542 205.824,198.379 205.650,198.885 205.545 C 200.974 205.111,201.093 204.430,201.301 191.692 C 201.519 178.306,201.574 178.065,204.889 175.685 C 208.473 173.114,211.801 173.100,214.906 175.644 C 217.369 177.662,217.358 177.600,217.570 191.119 C 217.776 204.287,217.778 204.299,219.823 205.507 C 220.965 206.182,223.554 206.299,224.627 205.724 C 226.354 204.800,226.456 203.977,226.529 190.302 C 226.616 174.179,226.522 173.317,224.414 170.944 C 223.539 169.958,222.713 168.808,222.579 168.387 C 222.178 167.122,215.998 164.356,212.614 163.926 C 209.636 163.549,209.058 163.672,206.475 165.235 C 201.676 168.139,201.295 167.609,201.295 158.025 C 201.295 150.777,201.289 150.725,200.396 149.885 C 199.403 148.953,195.479 148.456,194.080 149.085 M157.420 151.064 C 160.036 155.062,155.635 159.500,152.331 156.196 C 151.020 154.885,151.593 150.893,153.153 150.476 C 154.981 149.987,156.887 150.250,157.420 151.064 M198.266 151.147 C 198.630 151.486,198.796 153.696,198.923 159.889 C 199.145 170.648,199.268 170.848,204.303 168.576 C 211.388 165.380,219.159 166.806,222.289 171.878 C 224.914 176.133,224.977 176.560,224.977 190.101 C 224.977 203.897,225.056 203.515,222.202 203.515 C 219.426 203.515,219.507 203.905,219.354 189.814 C 219.202 175.686,219.264 176.005,216.144 173.484 C 211.737 169.922,207.270 169.773,203.942 173.075 C 203.170 173.841,202.102 174.850,201.569 175.318 C 200.893 175.911,200.475 176.803,200.182 178.278 C 199.952 179.439,199.571 181.055,199.336 181.869 C 199.064 182.807,198.904 186.667,198.898 192.414 C 198.889 202.559,198.806 202.954,196.601 203.368 C 193.778 203.897,193.915 205.255,193.942 176.969 C 193.955 163.212,194.056 151.721,194.167 151.433 C 194.611 150.274,197.141 150.097,198.266 151.147 M171.642 155.009 C 169.246 156.725,168.733 157.696,168.732 160.517 C 168.731 163.172,167.847 165.013,166.170 165.850 C 164.042 166.912,162.013 169.062,162.275 169.977 C 162.723 171.547,164.509 173.688,165.997 174.440 C 168.823 175.868,168.629 175.002,168.800 186.966 C 168.959 198.131,169.021 198.594,170.585 200.273 C 170.938 200.652,171.533 201.639,171.906 202.467 C 173.286 205.527,182.687 208.213,185.520 206.356 C 189.074 204.028,187.495 197.876,183.167 197.192 C 179.398 196.597,179.114 195.704,179.102 184.409 L 179.093 176.218 180.087 175.568 C 180.633 175.210,181.840 174.848,182.769 174.763 C 186.466 174.427,187.234 173.644,187.234 170.213 C 187.234 167.158,185.460 164.976,183.485 165.603 C 180.997 166.393,179.093 163.748,179.093 159.501 C 179.093 157.365,177.796 155.339,175.765 154.303 C 173.883 153.343,173.996 153.323,171.642 155.009 M175.310 157.795 C 175.831 158.457,176.081 159.554,176.247 161.907 C 176.582 166.658,177.138 167.183,182.479 167.797 C 186.677 168.279,186.778 171.369,182.609 171.799 C 179.978 172.071,177.540 173.466,176.736 175.159 C 176.051 176.604,175.854 191.690,176.485 194.411 C 177.007 196.658,180.179 199.669,182.564 200.181 C 187.789 201.301,186.601 204.009,180.909 203.955 C 172.862 203.879,171.693 201.313,171.693 183.720 C 171.693 174.640,171.713 174.716,168.699 172.781 C 167.695 172.137,166.524 171.119,166.096 170.518 L 165.318 169.425 166.090 168.603 C 166.515 168.151,167.574 167.589,168.445 167.354 C 171.302 166.582,171.492 166.282,171.636 162.303 C 171.806 157.586,173.506 155.501,175.310 157.795 M92.955 166.022 C 89.929 167.093,89.442 169.300,91.383 173.146 C 92.029 174.424,92.886 176.980,93.289 178.826 C 93.692 180.671,94.323 182.943,94.693 183.875 C 95.779 186.616,96.495 189.077,97.116 192.207 C 97.489 194.085,98.103 195.773,98.818 196.887 C 99.514 197.971,100.075 199.492,100.304 200.912 C 100.860 204.362,101.820 205.387,104.982 205.909 C 108.746 206.530,111.886 204.581,112.308 201.362 C 112.638 198.844,113.481 196.321,114.488 194.837 C 115.290 193.655,115.870 191.266,116.739 185.561 C 117.075 183.351,117.261 183.188,119.073 183.520 C 121.075 183.886,120.805 183.361,121.697 188.630 C 122.292 192.144,122.757 193.719,123.752 195.595 C 124.593 197.178,125.126 198.786,125.289 200.231 C 125.746 204.267,128.460 206.405,132.470 205.887 C 136.035 205.426,137.122 204.384,137.685 200.887 C 137.911 199.483,138.432 198.142,139.143 197.131 C 139.942 195.996,140.407 194.687,140.819 192.414 C 141.451 188.934,142.184 186.384,143.249 183.974 C 143.636 183.097,144.221 181.015,144.550 179.349 C 144.878 177.682,145.721 175.069,146.424 173.543 C 148.578 168.862,148.086 166.985,144.424 165.921 C 140.964 164.915,137.539 167.996,136.566 172.992 C 136.348 174.109,135.992 175.937,135.775 177.054 C 135.557 178.171,134.885 180.010,134.282 181.140 C 133.576 182.464,133.070 184.117,132.861 185.785 C 132.682 187.209,132.245 188.817,131.891 189.358 L 131.246 190.342 130.913 189.442 C 130.730 188.947,130.427 187.336,130.240 185.862 C 130.005 184.006,129.501 182.413,128.601 180.676 C 127.753 179.038,127.158 177.217,126.888 175.425 C 124.832 161.806,113.549 162.020,111.158 175.723 C 110.788 177.846,110.210 179.554,109.330 181.128 C 108.368 182.848,107.950 184.161,107.675 186.331 C 107.080 191.023,105.768 190.673,105.145 185.654 C 104.949 184.079,104.473 182.250,104.086 181.590 C 102.833 179.450,102.187 177.417,101.754 174.258 C 100.831 167.518,97.511 164.410,92.955 166.022 M152.636 166.122 C 150.352 167.057,150.427 166.452,150.303 184.960 C 150.180 203.400,150.254 204.235,152.089 205.184 C 154.983 206.681,157.680 206.126,159.006 203.762 C 159.739 202.456,159.667 169.424,158.929 167.997 C 157.886 165.980,155.048 165.135,152.636 166.122 M120.808 167.990 C 121.415 168.221,121.978 168.875,122.321 169.748 C 122.621 170.512,123.360 172.137,123.963 173.358 C 124.566 174.579,125.325 176.990,125.650 178.716 C 125.975 180.443,126.627 182.690,127.100 183.712 C 127.572 184.733,128.389 187.144,128.915 189.069 C 130.257 193.985,132.387 195.357,133.407 191.962 C 133.546 191.498,134.033 190.120,134.488 188.899 C 136.193 184.326,136.916 181.774,137.438 178.474 C 137.796 176.214,138.281 174.596,138.890 173.630 C 139.394 172.833,140.012 171.491,140.265 170.648 C 140.899 168.530,141.740 167.844,143.334 168.143 C 145.175 168.489,145.670 169.223,144.876 170.434 C 144.529 170.964,143.923 173.005,143.530 174.968 C 143.107 177.088,142.293 179.603,141.528 181.159 C 140.626 182.991,140.127 184.660,139.867 186.709 C 139.445 190.045,139.030 191.491,137.778 193.988 C 137.294 194.955,136.554 197.235,136.136 199.054 C 135.263 202.845,135.058 203.093,132.567 203.388 C 128.894 203.823,127.666 202.642,126.725 197.769 C 126.140 194.738,125.749 193.587,124.524 191.291 C 123.958 190.229,123.421 188.223,123.064 185.833 C 122.218 180.178,121.341 178.944,118.322 179.165 C 116.293 179.314,115.286 181.190,114.745 185.825 C 114.472 188.175,114.055 189.667,113.199 191.364 C 112.534 192.681,111.720 195.212,111.318 197.213 C 110.273 202.413,109.095 203.661,105.479 203.402 C 102.994 203.224,102.563 202.681,101.684 198.632 C 101.337 197.038,100.475 194.446,99.767 192.872 C 98.903 190.951,98.344 188.974,98.068 186.864 C 97.783 184.693,97.272 182.917,96.415 181.129 C 95.733 179.704,94.895 177.123,94.552 175.393 C 94.210 173.663,93.594 171.588,93.183 170.781 L 92.436 169.315 93.253 168.654 C 94.746 167.445,97.687 168.156,97.687 169.726 C 97.687 170.005,98.204 171.257,98.835 172.508 C 99.564 173.952,100.227 176.142,100.650 178.510 C 101.018 180.561,101.521 182.738,101.770 183.349 C 102.019 183.959,102.352 185.042,102.511 185.754 C 102.910 187.537,104.924 192.696,105.487 193.375 C 106.781 194.934,108.366 192.752,109.564 187.760 C 109.805 186.758,110.378 185.190,110.839 184.274 C 111.299 183.358,111.951 181.193,112.287 179.463 C 112.974 175.926,113.439 174.519,114.365 173.170 C 114.715 172.659,115.195 171.526,115.430 170.652 C 116.178 167.874,118.057 166.944,120.808 167.990 M157.249 168.708 C 157.878 169.884,157.766 202.081,157.129 202.951 C 156.463 203.862,153.235 203.816,152.544 202.886 C 151.746 201.813,151.888 169.560,152.694 168.669 C 153.579 167.691,156.719 167.718,157.249 168.708 M119.704 235.338 C 118.723 235.513,119.721 235.606,122.664 235.611 C 125.413 235.617,126.682 235.512,125.994 235.338 C 124.616 234.987,121.663 234.987,119.704 235.338 M127.941 235.969 C 128.402 236.058,129.068 236.055,129.422 235.962 C 129.775 235.869,129.399 235.797,128.585 235.801 C 127.771 235.805,127.481 235.881,127.941 235.969 M283.444 237.128 C 281.924 238.648,281.919 238.752,282.038 267.345 C 282.166 297.979,282.023 297.132,287.081 297.132 C 291.066 297.132,292.979 294.702,293.435 289.061 C 293.829 284.182,294.808 281.509,295.456 283.540 C 295.536 283.791,295.863 284.939,296.183 286.092 C 296.564 287.465,297.123 288.489,297.804 289.063 C 298.376 289.544,299.291 290.595,299.837 291.398 C 300.603 292.526,301.780 293.365,304.994 295.077 L 309.158 297.294 314.548 297.431 C 320.656 297.586,322.276 297.286,324.372 295.614 C 325.163 294.983,326.570 294.081,327.499 293.608 C 331.257 291.696,332.483 287.956,330.011 285.941 C 326.225 282.853,324.121 282.366,322.129 284.114 C 320.610 285.448,316.583 286.768,314.776 286.525 C 312.015 286.153,309.161 285.030,309.046 284.271 C 308.857 283.028,312.820 280.612,316.427 279.772 C 318.364 279.321,320.019 278.660,321.074 277.917 C 321.974 277.282,323.575 276.580,324.630 276.356 C 330.176 275.181,333.699 271.057,331.647 268.141 C 331.053 267.296,330.334 266.022,330.050 265.310 C 329.035 262.768,323.934 258.159,320.999 257.132 C 319.336 256.550,310.012 256.405,307.029 256.915 C 304.819 257.292,302.764 258.878,297.831 264.015 C 297.038 264.840,296.605 265.862,296.143 267.993 C 295.494 270.988,295.322 271.218,294.410 270.305 C 293.578 269.473,293.430 267.078,293.334 252.914 C 293.248 240.175,293.233 239.941,292.409 238.615 C 290.717 235.895,285.537 235.035,283.444 237.128 M108.953 237.979 C 107.947 238.617,106.603 239.325,105.967 239.551 C 104.583 240.044,102.578 241.765,99.883 244.774 L 97.895 246.994 100.289 244.773 C 102.885 242.366,105.401 240.519,109.158 238.263 C 110.481 237.468,111.388 236.818,111.173 236.818 C 110.959 236.818,109.960 237.340,108.953 237.979 M289.257 240.110 C 290.080 241.335,290.525 253.871,290.217 267.160 C 290.187 268.483,290.154 274.448,290.146 280.415 C 290.126 293.524,289.994 294.028,286.647 293.706 C 283.518 293.406,283.589 293.680,283.275 280.784 C 283.125 274.614,282.981 268.982,282.956 268.270 C 282.930 267.558,283.037 265.143,283.192 262.905 C 283.348 260.666,283.535 254.921,283.607 250.139 C 283.745 241.030,283.943 239.827,285.426 239.092 C 286.895 238.364,288.343 238.749,289.257 240.110 M140.013 240.596 C 142.177 243.934,140.471 249.269,137.500 248.461 C 136.759 248.259,136.755 248.274,137.409 248.799 C 137.785 249.101,138.367 249.251,138.704 249.132 C 139.314 248.917,143.201 245.152,143.201 244.776 C 143.201 244.174,140.892 240.631,140.236 240.226 C 139.495 239.768,139.487 239.783,140.013 240.596 M121.832 244.103 C 122.188 244.196,122.771 244.196,123.127 244.103 C 123.483 244.010,123.191 243.934,122.479 243.934 C 121.767 243.934,121.475 244.010,121.832 244.103 M127.845 244.816 C 129.293 245.647,133.296 247.216,133.485 247.027 C 133.713 246.798,129.087 244.642,127.845 244.398 L 126.735 244.180 127.845 244.816 M97.277 248.011 C 97.037 248.469,96.302 249.446,95.643 250.183 C 94.509 251.452,93.336 254.051,93.722 254.438 C 93.821 254.536,94.083 254.097,94.304 253.461 C 94.526 252.826,95.188 251.693,95.777 250.945 C 96.888 249.530,98.211 247.179,97.895 247.179 C 97.795 247.179,97.517 247.553,97.277 248.011 M166.883 256.780 C 164.425 257.250,163.341 257.751,161.990 259.044 C 161.323 259.682,160.331 260.435,159.785 260.718 C 158.784 261.237,155.006 266.656,154.038 268.962 C 152.481 272.672,153.541 285.917,155.577 288.195 C 156.242 288.939,157.237 290.269,157.788 291.151 C 158.547 292.364,159.304 292.987,160.894 293.707 C 162.051 294.230,163.694 295.152,164.545 295.755 C 168.294 298.412,179.479 298.183,183.004 295.377 C 183.804 294.740,184.958 294.097,185.569 293.947 C 186.741 293.661,190.934 289.931,190.934 289.175 C 190.934 288.931,191.675 287.604,192.580 286.226 C 193.485 284.848,194.327 283.258,194.451 282.693 C 194.705 281.539,196.113 280.871,196.117 281.903 C 196.122 283.539,197.056 285.557,198.464 286.978 C 199.309 287.831,201.166 289.809,202.590 291.375 C 209.058 298.483,219.121 299.607,227.986 294.212 C 232.153 291.676,232.515 291.345,233.688 288.992 C 234.246 287.872,235.075 286.457,235.529 285.846 C 238.234 282.216,237.869 272.176,234.853 267.223 C 234.398 266.476,233.785 265.392,233.491 264.813 C 232.905 263.662,226.821 258.506,224.752 257.407 C 223.078 256.518,215.628 256.149,211.713 256.762 C 204.901 257.827,196.880 265.487,196.249 271.528 C 195.999 273.922,194.635 275.116,194.635 272.942 C 194.635 271.033,194.112 269.681,192.794 268.177 C 192.036 267.312,191.221 266.010,190.983 265.283 C 190.493 263.788,187.261 260.299,186.019 259.925 C 185.568 259.789,184.699 259.219,184.089 258.658 C 182.124 256.854,172.181 255.768,166.883 256.780 M252.988 257.527 C 252.214 257.676,251.382 258.011,251.138 258.269 C 250.811 258.615,250.939 258.607,251.619 258.237 C 253.104 257.429,262.809 257.533,264.874 258.380 C 265.753 258.740,266.358 258.848,266.216 258.619 C 265.400 257.298,257.527 256.648,252.988 257.527 M222.843 258.300 C 224.291 258.694,231.380 264.939,232.280 266.614 C 234.103 270.009,235.338 274.713,235.338 278.264 L 235.338 281.879 233.440 285.528 C 230.967 290.283,230.903 290.344,225.751 292.845 C 220.770 295.264,217.108 295.696,212.211 294.443 C 210.990 294.131,209.334 293.762,208.531 293.623 C 207.351 293.420,206.642 292.903,204.831 290.924 C 203.598 289.577,201.560 287.430,200.301 286.151 C 197.620 283.427,197.396 282.650,197.434 276.226 C 197.475 269.489,199.064 266.862,206.961 260.476 C 210.056 257.973,217.755 256.918,222.843 258.300 M273.738 258.083 C 276.952 259.087,277.884 260.444,277.889 264.129 C 277.890 265.026,278.043 265.630,278.238 265.509 C 278.587 265.293,278.383 259.887,278.002 259.270 C 277.607 258.630,274.726 257.556,273.451 257.572 L 272.155 257.589 273.738 258.083 M179.440 258.306 C 184.857 259.554,188.992 264.235,192.073 272.609 C 193.155 275.548,193.043 280.021,191.817 282.886 C 191.294 284.107,190.542 285.939,190.145 286.957 C 189.291 289.144,185.951 292.509,184.265 292.879 C 183.653 293.013,181.846 293.689,180.249 294.382 C 173.993 297.093,167.388 296.115,160.873 291.513 C 159.891 290.819,156.306 286.288,155.472 284.686 C 154.602 283.015,155.061 270.466,156.066 268.455 C 157.157 266.272,159.624 262.838,160.605 262.137 C 164.338 259.473,165.897 258.526,166.963 258.273 C 168.763 257.846,177.547 257.869,179.440 258.306 M319.149 258.314 C 324.066 259.645,331.221 268.115,329.565 270.643 C 328.655 272.032,325.157 274.472,322.849 275.328 C 321.628 275.781,319.796 276.610,318.779 277.171 C 317.761 277.731,315.680 278.466,314.154 278.803 C 308.384 280.078,305.482 283.251,307.958 285.576 C 311.420 288.829,315.258 289.369,320.073 287.283 C 323.434 285.826,325.827 285.722,327.701 286.949 C 330.282 288.641,328.769 291.023,323.324 293.838 L 319.519 295.804 315.264 295.816 L 311.008 295.827 306.660 293.835 C 297.831 289.790,294.327 281.285,297.108 270.651 C 298.174 266.573,301.264 261.610,302.736 261.610 C 302.896 261.610,303.574 261.135,304.242 260.554 C 307.032 258.131,314.388 257.025,319.149 258.314 M245.503 262.569 L 243.663 264.269 245.606 262.720 C 247.320 261.353,247.801 260.870,247.446 260.870 C 247.389 260.870,246.515 261.634,245.503 262.569 M123.320 263.623 C 122.510 265.190,122.098 266.790,122.505 266.790 C 122.694 266.790,122.849 266.550,122.849 266.256 C 122.849 264.100,126.984 262.929,133.210 263.323 C 134.940 263.432,137.902 263.362,139.792 263.166 C 142.988 262.836,146.368 263.141,149.092 264.005 C 150.584 264.479,151.157 266.385,151.150 270.860 L 151.144 275.116 149.201 279.371 C 148.133 281.711,146.912 284.271,146.488 285.058 C 146.064 285.846,145.904 286.375,146.131 286.235 C 146.359 286.094,146.979 285.117,147.510 284.063 C 148.041 283.009,149.110 281.453,149.885 280.607 C 151.665 278.664,151.855 277.629,151.633 271.093 C 151.329 262.138,152.119 262.576,136.224 262.553 L 123.883 262.535 123.320 263.623 M213.321 265.010 C 211.468 265.521,207.493 269.459,205.969 272.294 C 202.566 278.622,207.585 287.417,215.381 288.786 C 217.222 289.109,223.714 286.788,225.031 285.335 C 228.569 281.434,227.812 269.599,223.844 266.773 C 221.441 265.063,216.270 264.196,213.321 265.010 M311.238 265.261 C 308.370 266.281,305.399 269.318,304.958 271.682 C 304.314 275.135,306.113 275.741,310.229 273.459 C 311.268 272.883,313.001 272.229,314.080 272.006 C 317.774 271.242,318.790 270.366,319.016 267.751 C 319.254 264.985,315.447 263.766,311.238 265.261 M101.123 266.605 C 101.126 267.623,101.198 267.995,101.283 267.432 C 101.368 266.870,101.366 266.037,101.278 265.582 C 101.190 265.127,101.121 265.587,101.123 266.605 M169.741 265.480 C 167.730 266.529,165.535 268.637,163.781 271.205 L 162.000 273.810 162.129 277.247 C 162.321 282.378,164.037 284.914,168.956 287.330 C 172.732 289.185,175.025 289.020,179.636 286.561 C 183.991 284.239,185.683 275.149,182.773 269.711 C 180.908 266.227,173.143 263.705,169.741 265.480 M257.817 265.201 C 258.275 265.289,259.024 265.289,259.482 265.201 C 259.940 265.113,259.565 265.041,258.649 265.041 C 257.734 265.041,257.359 265.113,257.817 265.201 M263.916 266.759 C 264.581 267.353,265.201 267.762,265.295 267.668 C 265.487 267.476,263.432 265.714,262.991 265.693 C 262.836 265.686,263.252 266.166,263.916 266.759 M177.289 267.634 C 178.383 268.358,179.721 269.150,180.262 269.394 C 183.538 270.873,183.106 282.743,179.704 284.712 C 175.654 287.056,167.838 286.737,166.477 284.173 C 163.819 279.160,163.462 276.197,165.095 272.710 C 165.619 271.591,166.148 270.382,166.270 270.025 C 166.392 269.667,166.954 269.178,167.520 268.938 C 168.085 268.698,169.047 268.049,169.658 267.496 C 171.732 265.617,174.309 265.663,177.289 267.634 M218.940 266.446 C 224.279 268.474,226.456 273.117,225.328 280.068 C 224.622 284.422,223.894 285.091,218.601 286.254 L 215.900 286.848 212.843 285.669 C 209.432 284.353,208.745 283.494,207.398 278.861 C 205.452 272.169,212.904 264.153,218.940 266.446 M316.720 266.398 C 317.572 266.937,316.151 269.727,314.721 270.321 C 312.468 271.256,308.723 271.405,308.279 270.576 C 307.837 269.749,308.039 269.520,310.823 267.696 C 313.415 265.998,315.398 265.561,316.720 266.398 M241.159 268.551 C 238.151 271.690,238.332 282.417,241.451 285.870 L 242.766 287.327 242.047 285.837 C 240.227 282.068,239.935 271.612,241.572 268.837 C 242.501 267.263,242.436 267.218,241.159 268.551 M122.517 269.033 C 122.453 271.267,123.473 271.979,126.656 271.924 L 129.325 271.877 126.740 271.546 C 123.874 271.179,123.280 270.784,122.849 268.959 L 122.555 267.715 122.517 269.033 M277.824 271.730 C 277.701 273.124,277.690 278.726,277.800 284.179 C 278.044 296.284,276.747 303.819,273.753 307.678 L 272.604 309.158 273.991 307.818 C 275.232 306.619,275.549 305.888,277.003 300.868 L 278.628 295.257 278.612 284.076 C 278.602 277.927,278.472 272.063,278.321 271.045 L 278.048 269.195 277.824 271.730 M131.457 271.866 C 132.020 271.951,132.852 271.949,133.308 271.861 C 133.763 271.773,133.302 271.703,132.285 271.706 C 131.267 271.709,130.895 271.781,131.457 271.866 M249.195 273.624 C 248.572 275.114,248.535 276.317,249.041 278.631 C 249.426 280.395,250.902 283.911,251.152 283.661 C 251.234 283.580,250.933 282.792,250.483 281.911 C 249.505 279.993,249.032 274.458,249.734 273.145 C 249.971 272.703,250.067 272.340,249.948 272.340 C 249.829 272.340,249.490 272.918,249.195 273.624 M93.257 275.870 C 93.217 277.421,94.541 280.822,95.629 281.961 C 96.309 282.673,97.138 283.797,97.471 284.459 C 97.804 285.120,98.158 285.661,98.258 285.661 C 98.520 285.661,96.592 281.889,95.965 281.176 C 95.675 280.846,94.950 279.430,94.352 278.031 C 93.755 276.631,93.263 275.659,93.257 275.870 M106.895 280.959 C 107.470 281.680,112.118 285.398,112.118 285.136 C 112.118 285.044,110.828 283.922,109.251 282.643 C 107.673 281.363,106.613 280.606,106.895 280.959 M134.989 283.635 C 134.034 284.546,133.375 285.291,133.525 285.291 C 133.674 285.291,134.531 284.542,135.430 283.626 C 137.537 281.480,137.242 281.485,134.989 283.635 M141.428 290.103 C 139.426 291.760,137.691 292.862,136.433 293.273 C 135.373 293.620,133.756 294.279,132.840 294.736 C 128.218 297.046,117.341 296.968,112.063 294.588 C 110.771 294.005,108.897 293.233,107.899 292.873 C 106.901 292.512,105.402 291.624,104.569 290.899 L 103.053 289.581 104.453 291.072 C 105.454 292.139,106.562 292.812,108.338 293.432 C 109.705 293.910,111.358 294.703,112.011 295.194 C 114.950 297.404,131.116 297.794,133.336 295.707 C 133.784 295.287,135.308 294.418,136.723 293.776 C 138.137 293.135,140.031 291.962,140.930 291.171 C 141.829 290.379,142.697 289.732,142.858 289.732 C 143.019 289.732,143.506 289.232,143.941 288.622 C 144.376 288.011,144.678 287.523,144.614 287.538 C 144.549 287.552,143.115 288.707,141.428 290.103 M243.108 288.392 C 243.108 288.918,247.840 293.396,249.029 293.994 C 249.741 294.353,250.780 295.027,251.338 295.492 C 254.172 297.858,263.964 297.610,266.030 295.122 C 266.706 294.307,265.990 294.369,264.204 295.280 C 260.701 297.067,256.099 297.098,252.852 295.356 C 252.208 295.010,250.680 294.190,249.456 293.533 C 248.233 292.876,247.012 292.033,246.743 291.660 C 246.121 290.799,243.108 288.090,243.108 288.392 M246.438 299.990 C 243.040 300.329,242.238 301.272,242.737 304.340 C 243.089 306.501,243.488 307.273,244.734 308.199 C 245.119 308.485,245.785 309.125,246.214 309.622 C 247.091 310.637,248.986 311.729,249.310 311.406 C 249.427 311.289,249.320 311.193,249.074 311.193 C 247.513 311.193,243.108 305.606,243.108 303.627 C 243.108 301.560,247.971 299.494,249.618 300.861 C 249.961 301.146,250.139 301.159,250.139 300.900 C 250.139 300.176,248.532 299.780,246.438 299.990 M264.570 303.739 C 260.242 306.336,258.060 306.502,254.720 304.488 C 252.867 303.371,252.814 303.688,254.651 304.905 C 258.046 307.154,261.293 306.832,265.355 303.846 C 267.278 302.431,266.846 302.373,264.570 303.739 M271.487 310.280 C 270.916 310.782,270.596 311.193,270.775 311.193 C 270.955 311.193,271.492 310.777,271.970 310.268 C 273.076 309.091,272.832 309.097,271.487 310.280 M251.899 313.321 C 252.378 313.779,253.136 314.139,253.582 314.122 C 254.256 314.095,254.214 314.036,253.337 313.773 C 252.755 313.599,251.998 313.238,251.653 312.972 C 251.309 312.706,251.420 312.863,251.899 313.321 M262.535 314.154 L 261.055 314.419 262.350 314.445 C 263.062 314.460,263.978 314.328,264.385 314.154 C 265.257 313.779,264.627 313.779,262.535 314.154 " stroke="none" fill="#bfb2a5" fill-rule="evenodd"></path></g></svg>