<svg id="svg" version="1.1" xmlns="http://www.w3.org/2000/svg" xmlns:xlink="http://www.w3.org/1999/xlink" width="400" height="400" viewBox="0, 0, 400,400"><g id="svgg"><path id="path0" d="M236.793 44.930 C 236.687 45.030,233.810 45.413,230.400 45.781 C 226.990 46.148,223.030 46.771,221.600 47.166 C 220.170 47.561,217.830 48.188,216.400 48.560 C 210.676 50.049,209.648 50.378,205.754 51.958 C 203.529 52.861,201.439 53.600,201.109 53.600 C 200.780 53.600,199.844 54.129,199.030 54.776 C 198.216 55.423,196.616 56.257,195.475 56.629 C 194.334 57.001,193.157 57.507,192.859 57.753 C 192.562 57.999,190.990 58.920,189.366 59.800 C 185.719 61.776,180.126 65.544,177.200 67.995 C 175.990 69.009,173.920 70.661,172.600 71.668 C 171.280 72.674,169.390 74.380,168.400 75.459 C 167.410 76.539,164.753 79.420,162.496 81.862 C 158.170 86.543,157.290 87.587,155.480 90.190 C 144.705 105.683,140.122 116.550,135.569 137.400 C 133.909 145.003,134.262 169.546,136.070 172.284 C 136.621 173.118,137.369 174.287,137.733 174.881 C 139.348 177.523,143.776 178.859,148.196 178.037 C 152.024 177.325,153.714 175.790,157.040 170.000 C 164.057 157.786,177.616 142.460,187.000 136.136 C 197.209 129.256,199.827 127.760,207.800 124.253 C 215.289 120.959,224.345 117.961,229.600 117.035 C 231.470 116.706,234.440 116.175,236.200 115.854 C 250.009 113.338,271.092 114.706,284.800 119.007 C 303.438 124.855,317.860 133.644,332.126 147.848 C 338.999 154.692,340.990 156.000,344.536 156.000 C 352.600 156.000,357.262 148.202,354.815 138.808 C 354.613 138.034,354.147 135.600,353.780 133.400 C 353.413 131.200,352.862 128.914,352.556 128.320 C 352.250 127.726,352.000 126.782,352.000 126.223 C 352.000 125.664,351.569 123.900,351.042 122.304 C 350.515 120.707,349.609 117.903,349.028 116.073 C 348.448 114.243,347.816 112.443,347.625 112.073 C 347.433 111.703,345.865 108.520,344.140 105.000 C 342.415 101.480,340.265 97.520,339.361 96.200 C 334.541 89.160,333.425 87.637,330.480 84.078 C 325.422 77.965,314.631 67.910,310.050 65.041 C 309.033 64.404,306.940 63.070,305.400 62.076 C 303.860 61.082,301.970 59.865,301.200 59.370 C 299.423 58.230,296.703 56.800,296.312 56.800 C 296.147 56.800,293.984 55.830,291.506 54.644 C 285.015 51.538,281.111 50.195,273.200 48.345 C 272.210 48.114,269.960 47.583,268.200 47.166 C 261.635 45.610,237.863 43.918,236.793 44.930 M251.241 222.463 C 248.601 223.222,245.709 225.884,244.141 229.000 C 241.667 233.918,236.204 241.893,232.633 245.800 C 229.046 249.724,227.353 251.864,226.823 253.145 C 226.454 254.036,225.699 254.742,224.426 255.387 C 223.403 255.905,221.855 256.962,220.984 257.736 C 217.228 261.072,214.654 263.200,214.373 263.200 C 214.207 263.200,212.766 264.267,211.169 265.571 C 209.573 266.875,207.203 268.540,205.901 269.271 C 204.600 270.002,203.055 270.968,202.468 271.418 C 201.264 272.340,199.230 273.217,196.004 274.206 C 194.795 274.576,193.041 275.328,192.104 275.877 C 189.373 277.478,181.750 280.329,177.200 281.452 C 174.890 282.022,172.280 282.866,171.400 283.327 C 166.494 285.899,133.579 286.110,124.400 283.627 C 122.750 283.181,120.140 282.514,118.600 282.144 C 109.890 280.055,99.717 276.009,93.600 272.201 C 92.390 271.448,90.500 270.530,89.400 270.162 C 88.296 269.792,86.504 268.700,85.400 267.723 C 81.392 264.178,77.505 260.982,76.252 260.200 C 74.033 258.817,69.082 254.342,65.575 250.551 C 57.575 241.903,47.732 242.686,45.614 252.139 C 45.129 254.302,46.436 268.351,47.254 269.774 C 47.803 270.729,50.388 280.298,50.395 281.403 C 50.398 281.845,50.869 283.088,51.443 284.166 C 52.017 285.243,52.829 287.120,53.247 288.336 C 53.665 289.552,54.614 291.651,55.356 293.000 C 56.097 294.349,56.827 296.012,56.977 296.695 C 57.127 297.378,57.693 298.415,58.235 299.000 C 58.777 299.585,59.745 301.102,60.386 302.372 C 61.027 303.642,62.057 305.280,62.676 306.013 C 63.294 306.746,64.536 308.488,65.436 309.884 C 69.602 316.346,83.597 330.557,88.519 333.323 C 89.664 333.966,91.140 334.993,91.800 335.604 C 92.460 336.216,93.990 337.205,95.200 337.803 C 96.410 338.400,97.940 339.287,98.600 339.773 C 99.260 340.258,101.026 341.224,102.525 341.919 C 104.025 342.613,105.735 343.520,106.325 343.934 C 106.916 344.348,108.480 345.084,109.800 345.570 C 111.120 346.055,112.761 346.781,113.448 347.182 C 114.134 347.583,115.664 348.116,116.848 348.367 C 118.031 348.617,120.800 349.436,123.000 350.186 C 125.200 350.936,128.427 351.744,130.171 351.981 C 131.915 352.218,134.460 352.757,135.826 353.179 C 142.547 355.255,170.005 355.107,176.220 352.961 C 177.309 352.585,179.640 351.969,181.400 351.592 C 183.160 351.215,186.467 350.239,188.749 349.422 C 191.030 348.606,194.071 347.692,195.506 347.392 C 197.423 346.991,198.451 346.520,199.387 345.613 C 200.141 344.882,202.579 343.578,205.376 342.410 C 207.970 341.327,210.386 340.192,210.746 339.887 C 211.106 339.583,212.390 338.738,213.600 338.010 C 214.810 337.282,216.038 336.348,216.329 335.934 C 216.620 335.520,218.017 334.656,219.433 334.014 C 220.849 333.372,222.114 332.568,222.245 332.227 C 222.376 331.886,223.409 330.934,224.541 330.111 C 226.315 328.821,230.138 325.080,239.312 315.655 C 240.460 314.475,241.670 313.007,242.000 312.394 C 242.330 311.780,243.821 309.595,245.314 307.539 C 248.779 302.765,251.827 297.989,252.619 296.093 C 252.960 295.277,253.778 293.770,254.436 292.743 C 255.119 291.680,255.830 289.822,256.090 288.425 C 256.415 286.678,256.911 285.546,257.815 284.487 C 258.691 283.460,259.176 282.381,259.381 281.000 C 259.545 279.900,260.369 276.982,261.212 274.516 C 262.056 272.049,262.865 269.169,263.010 268.116 C 263.156 267.062,263.724 264.326,264.274 262.035 C 265.368 257.473,265.825 240.231,265.062 232.278 C 264.355 224.902,258.132 220.482,251.241 222.463 " stroke="none" fill="#f35538" fill-rule="evenodd"></path><path id="path1" d="M136.600 46.175 C 133.740 46.693,130.294 47.405,128.942 47.758 C 127.591 48.111,126.151 48.401,125.742 48.402 C 125.334 48.404,124.464 48.685,123.808 49.026 C 123.153 49.368,121.713 49.835,120.608 50.064 C 117.346 50.740,114.694 51.673,113.207 52.668 C 112.441 53.181,111.643 53.600,111.433 53.600 C 111.020 53.600,110.046 54.034,103.470 57.149 C 101.088 58.277,99.044 59.200,98.927 59.200 C 98.811 59.200,98.217 59.605,97.608 60.100 C 96.115 61.314,94.505 62.464,93.584 62.977 C 86.028 67.184,72.253 80.511,65.509 90.140 C 61.789 95.451,59.399 99.368,57.978 102.484 C 57.046 104.528,56.154 106.380,55.994 106.600 C 55.835 106.820,55.485 107.681,55.217 108.513 C 54.949 109.344,54.251 110.843,53.665 111.842 C 53.079 112.841,52.378 114.051,52.106 114.529 C 51.834 115.008,51.609 115.891,51.606 116.492 C 51.603 117.092,51.347 118.262,51.039 119.092 C 49.836 122.324,48.402 127.524,48.003 130.097 C 47.774 131.580,47.412 133.200,47.200 133.697 C 46.820 134.586,46.381 138.338,45.552 147.800 C 45.004 154.054,45.549 165.675,46.724 172.800 C 47.770 179.141,48.549 182.802,49.236 184.608 C 49.656 185.712,50.001 186.882,50.002 187.208 C 50.004 187.533,50.292 188.340,50.644 189.000 C 50.995 189.660,51.894 192.116,52.642 194.457 C 53.390 196.799,54.243 198.808,54.539 198.921 C 54.834 199.034,55.660 200.747,56.374 202.727 C 57.088 204.707,58.254 207.211,58.965 208.290 C 59.675 209.370,60.862 211.321,61.602 212.626 C 62.342 213.932,63.087 215.096,63.258 215.214 C 63.429 215.332,63.836 216.066,64.161 216.846 C 64.487 217.626,65.055 218.514,65.424 218.820 C 66.120 219.398,71.200 225.787,71.200 226.084 C 71.200 226.245,79.424 234.536,83.416 238.400 C 84.439 239.390,85.445 240.515,85.652 240.900 C 85.859 241.285,86.366 241.600,86.778 241.600 C 87.191 241.600,88.439 242.320,89.552 243.200 C 90.666 244.080,91.664 244.800,91.770 244.800 C 91.876 244.800,93.182 245.711,94.672 246.824 C 96.161 247.938,98.645 249.480,100.190 250.252 C 101.736 251.024,104.350 252.456,106.000 253.435 C 107.650 254.414,109.678 255.399,110.506 255.624 C 111.334 255.850,112.594 256.365,113.306 256.769 C 114.018 257.173,115.860 257.909,117.400 258.404 C 118.940 258.898,121.100 259.621,122.200 260.009 C 126.870 261.656,128.428 262.082,132.600 262.853 C 140.054 264.230,141.560 264.407,149.200 264.807 C 160.106 265.377,170.016 264.760,172.101 263.381 C 176.344 260.573,177.675 258.378,177.642 254.245 C 177.601 249.217,175.769 246.782,169.487 243.402 C 166.407 241.746,163.283 239.666,158.857 236.326 C 156.578 234.607,154.587 233.200,154.432 233.200 C 154.277 233.200,152.631 231.746,150.775 229.969 C 148.919 228.191,146.950 226.468,146.400 226.138 C 145.850 225.809,144.508 224.338,143.417 222.870 C 142.327 221.401,140.977 219.735,140.417 219.167 C 138.086 216.800,136.852 215.234,134.978 212.270 C 133.890 210.549,132.351 208.299,131.557 207.270 C 130.051 205.318,127.602 200.919,127.601 200.162 C 127.600 199.921,127.240 199.398,126.800 199.000 C 126.360 198.602,126.000 198.077,126.000 197.834 C 126.000 197.592,125.222 195.865,124.272 193.996 C 123.322 192.128,122.079 189.250,121.509 187.600 C 119.179 180.846,117.220 174.462,116.963 172.783 C 116.813 171.803,116.502 170.640,116.271 170.200 C 115.541 168.806,114.311 156.486,114.115 148.600 C 113.863 138.434,115.737 123.742,118.027 117.932 C 118.452 116.853,118.800 115.209,118.800 114.279 C 118.800 113.349,119.160 111.916,119.600 111.096 C 120.040 110.275,120.400 109.389,120.400 109.128 C 120.400 108.866,120.743 107.921,121.162 107.026 C 121.581 106.132,122.868 103.240,124.022 100.600 C 125.175 97.960,126.391 95.382,126.724 94.872 C 127.427 93.794,128.113 92.579,129.866 89.315 C 130.563 88.018,131.789 86.171,132.591 85.211 C 133.393 84.251,134.336 82.911,134.686 82.233 C 136.230 79.245,144.726 69.736,151.119 63.840 C 153.345 61.788,153.980 60.817,154.980 57.948 C 155.747 55.744,155.757 54.370,155.016 52.932 C 154.695 52.310,154.323 51.274,154.191 50.631 C 153.273 46.175,146.327 44.416,136.600 46.175 " stroke="none" fill="#2292ea" fill-rule="evenodd"></path><path id="path2" d="M233.048 135.254 C 228.891 135.552,228.188 135.707,227.427 136.497 C 226.948 136.994,225.989 137.890,225.295 138.489 C 222.779 140.658,221.759 143.953,222.423 147.764 C 222.971 150.913,227.110 155.669,229.729 156.160 C 230.494 156.304,231.340 156.686,231.609 157.011 C 231.878 157.335,232.234 157.600,232.401 157.600 C 232.953 157.600,237.299 160.361,238.578 161.525 C 239.271 162.156,240.819 163.310,242.019 164.091 C 243.218 164.872,245.730 166.895,247.600 168.585 C 249.470 170.276,251.464 171.905,252.031 172.204 C 252.598 172.504,253.750 173.589,254.591 174.615 C 255.432 175.641,256.858 177.243,257.760 178.175 C 260.999 181.522,270.800 195.538,270.800 196.824 C 270.800 197.234,271.139 197.891,271.554 198.284 C 272.340 199.031,274.000 201.924,274.000 202.548 C 274.000 202.746,275.161 205.278,276.580 208.174 C 277.999 211.070,279.337 214.150,279.553 215.020 C 279.769 215.889,280.223 217.410,280.563 218.400 C 281.252 220.413,282.133 223.205,283.022 226.200 C 286.276 237.160,286.739 266.630,283.810 276.400 C 283.514 277.390,283.166 278.942,283.039 279.848 C 282.911 280.755,282.449 282.285,282.012 283.248 C 281.575 284.212,281.214 285.543,281.209 286.206 C 281.204 286.869,280.865 288.039,280.456 288.806 C 280.047 289.573,279.576 290.650,279.409 291.200 C 279.242 291.750,278.677 293.150,278.153 294.312 C 277.629 295.473,277.200 296.616,277.200 296.850 C 277.200 297.085,276.947 297.754,276.638 298.338 C 276.329 298.922,275.568 300.480,274.947 301.800 C 273.734 304.379,270.592 309.975,268.863 312.635 C 268.278 313.534,267.224 315.154,266.520 316.235 C 265.240 318.200,263.130 321.134,262.000 322.521 C 261.670 322.925,260.343 324.329,259.052 325.640 C 257.760 326.951,256.230 328.725,255.652 329.583 C 255.073 330.440,253.607 332.010,252.394 333.071 C 246.003 338.660,245.040 340.306,245.276 345.235 C 245.667 353.413,250.543 355.775,262.600 353.624 C 273.400 351.698,275.095 351.340,276.488 350.691 C 277.210 350.355,278.880 349.863,280.200 349.598 C 281.520 349.332,283.825 348.505,285.322 347.758 C 286.819 347.011,288.370 346.400,288.768 346.400 C 289.166 346.400,289.921 346.066,290.446 345.658 C 290.971 345.250,292.061 344.701,292.868 344.438 C 293.675 344.174,294.552 343.698,294.817 343.380 C 295.082 343.061,295.591 342.797,295.949 342.794 C 296.307 342.791,297.050 342.540,297.600 342.237 C 298.150 341.934,299.556 341.198,300.724 340.602 C 301.892 340.006,303.272 339.132,303.792 338.659 C 305.911 336.731,306.625 336.159,307.980 335.303 C 308.761 334.809,309.850 334.182,310.400 333.910 C 310.950 333.638,312.840 332.160,314.600 330.626 C 316.360 329.092,318.032 327.648,318.315 327.418 C 319.768 326.238,326.500 319.360,326.860 318.688 C 327.089 318.261,328.468 316.658,329.925 315.127 C 331.382 313.596,332.940 311.745,333.387 311.014 C 333.834 310.284,334.544 309.171,334.964 308.543 C 335.384 307.914,336.192 306.680,336.758 305.800 C 337.325 304.920,338.424 303.300,339.202 302.200 C 339.979 301.100,340.997 299.390,341.464 298.400 C 341.932 297.410,343.233 294.694,344.357 292.365 C 345.481 290.036,346.400 287.875,346.400 287.562 C 346.400 287.250,346.850 286.148,347.400 285.115 C 347.950 284.082,348.400 282.857,348.400 282.392 C 348.400 281.927,348.607 281.160,348.861 280.687 C 349.396 279.686,350.533 275.485,351.427 271.200 C 351.772 269.550,352.314 267.277,352.632 266.149 C 355.642 255.471,354.723 228.967,350.942 217.400 C 350.583 216.300,350.056 214.500,349.773 213.400 C 349.187 211.128,347.792 206.994,347.208 205.800 C 346.993 205.360,346.278 203.577,345.619 201.837 C 344.961 200.098,344.073 198.298,343.647 197.837 C 343.220 197.377,342.667 196.280,342.417 195.400 C 341.814 193.274,340.706 191.240,337.700 186.743 C 336.325 184.685,335.200 182.776,335.200 182.501 C 335.200 182.225,335.030 182.000,334.822 182.000 C 334.614 182.000,334.209 181.564,333.922 181.032 C 331.737 176.978,315.519 159.571,313.100 158.682 C 312.715 158.541,312.400 158.164,312.400 157.844 C 312.400 157.514,311.840 157.142,311.100 156.981 C 310.385 156.825,308.972 156.007,307.961 155.163 C 306.949 154.318,304.519 152.694,302.561 151.554 C 300.602 150.414,298.730 149.252,298.400 148.973 C 297.447 148.165,286.726 142.887,285.400 142.574 C 284.740 142.417,284.013 142.144,283.784 141.965 C 283.555 141.787,282.475 141.450,281.384 141.217 C 280.293 140.985,278.590 140.454,277.600 140.039 C 274.449 138.717,269.477 137.286,267.058 137.004 C 265.770 136.855,263.870 136.481,262.837 136.174 C 259.207 135.096,242.470 134.579,233.048 135.254 " stroke="none" fill="#8453e1" fill-rule="evenodd"></path><path id="path3" d="M0.000 200.000 L 0.000 400.000 200.000 400.000 L 400.000 400.000 400.000 200.000 L 400.000 0.000 200.000 0.000 L 0.000 0.000 0.000 200.000 M151.600 45.192 C 153.633 46.633,155.200 48.091,155.200 48.543 C 155.200 48.760,155.475 49.241,155.812 49.613 C 158.394 52.467,155.768 64.400,152.558 64.400 C 152.267 64.400,151.813 64.802,151.551 65.292 C 151.288 65.783,150.639 66.526,150.110 66.943 C 148.624 68.111,143.074 73.831,142.006 75.294 C 141.482 76.012,140.225 77.590,139.212 78.800 C 138.200 80.010,136.941 81.801,136.415 82.780 C 135.889 83.759,135.047 84.929,134.544 85.380 C 134.041 85.831,132.881 87.550,131.967 89.200 C 131.053 90.850,129.988 92.560,129.599 93.000 C 129.211 93.440,128.600 94.340,128.242 95.000 C 127.883 95.660,127.423 96.470,127.219 96.800 C 126.559 97.870,124.800 101.938,124.800 102.396 C 124.800 102.641,124.464 103.507,124.052 104.321 C 121.514 109.343,120.726 111.645,119.843 116.617 C 119.568 118.166,119.042 119.966,118.673 120.617 C 116.075 125.206,114.552 155.674,116.544 163.200 C 116.865 164.410,117.328 167.077,117.575 169.126 C 118.037 172.971,119.107 176.975,120.437 179.844 C 120.857 180.748,121.201 182.008,121.203 182.644 C 121.204 183.280,121.563 184.340,122.000 185.000 C 122.437 185.660,122.796 186.457,122.797 186.771 C 122.800 187.251,125.910 193.962,127.845 197.662 C 128.150 198.246,128.400 198.983,128.400 199.300 C 128.400 199.617,128.755 200.198,129.190 200.591 C 129.624 200.984,130.100 201.686,130.248 202.151 C 130.396 202.616,131.255 203.921,132.158 205.050 C 133.702 206.981,134.199 207.738,136.195 211.200 C 137.507 213.475,138.087 214.196,142.037 218.464 C 150.374 227.474,157.340 234.000,158.620 234.000 C 158.921 234.000,159.670 234.445,160.284 234.990 C 163.995 238.280,165.145 239.179,166.400 239.769 C 167.170 240.132,168.520 240.865,169.400 241.398 C 170.280 241.932,171.490 242.648,172.089 242.989 C 178.799 246.811,181.155 252.019,178.920 258.087 C 177.892 260.875,177.391 261.545,174.295 264.263 C 171.985 266.291,152.818 267.423,144.600 266.016 C 143.060 265.753,139.858 265.388,137.485 265.205 C 135.112 265.023,132.932 264.676,132.641 264.434 C 132.350 264.192,130.746 263.821,129.078 263.610 C 127.409 263.398,125.362 262.860,124.528 262.413 C 123.694 261.966,122.739 261.599,122.406 261.598 C 122.073 261.596,121.264 261.315,120.608 260.974 C 119.953 260.632,118.513 260.159,117.408 259.923 C 116.304 259.688,114.971 259.158,114.446 258.747 C 113.921 258.336,113.289 258.000,113.040 258.000 C 112.792 258.000,111.961 257.666,111.194 257.259 C 110.427 256.851,109.143 256.396,108.340 256.248 C 107.537 256.100,106.660 255.714,106.391 255.389 C 106.122 255.065,105.604 254.800,105.239 254.800 C 104.874 254.800,103.321 253.991,101.788 253.003 C 100.255 252.014,98.790 251.204,98.534 251.203 C 98.278 251.201,97.648 250.846,97.134 250.414 C 94.731 248.393,93.732 247.688,92.900 247.428 C 92.405 247.273,92.000 246.983,92.000 246.783 C 92.000 246.584,91.415 246.124,90.700 245.760 C 89.985 245.397,88.650 244.493,87.733 243.750 C 86.816 243.008,85.911 242.400,85.722 242.400 C 85.533 242.400,84.931 241.905,84.385 241.300 C 83.838 240.695,82.763 239.757,81.996 239.215 C 80.399 238.089,76.978 234.693,73.200 230.483 C 71.770 228.890,69.835 226.770,68.900 225.773 C 67.965 224.775,67.200 223.739,67.200 223.469 C 67.200 223.199,66.885 222.691,66.500 222.340 C 64.987 220.962,63.200 218.746,63.200 218.249 C 63.200 217.960,62.820 217.381,62.356 216.962 C 61.892 216.543,61.139 215.390,60.683 214.400 C 60.227 213.410,59.436 212.091,58.927 211.469 C 58.417 210.847,58.000 210.104,58.000 209.818 C 58.000 209.532,57.748 209.089,57.439 208.833 C 57.131 208.577,56.758 207.885,56.610 207.297 C 56.462 206.708,55.904 205.303,55.371 204.174 C 54.837 203.046,54.400 201.804,54.400 201.414 C 54.400 201.024,53.870 200.102,53.222 199.364 C 52.149 198.141,51.208 195.850,51.202 194.444 C 51.201 194.138,50.864 193.148,50.452 192.244 C 48.731 188.459,47.890 186.074,47.546 184.000 C 47.345 182.790,46.912 181.113,46.583 180.274 C 46.254 179.434,45.881 177.364,45.755 175.674 C 45.628 173.983,45.226 171.790,44.862 170.800 C 43.832 167.999,43.890 143.792,44.940 138.400 C 47.027 127.677,47.298 126.465,48.252 123.600 C 48.852 121.798,50.168 117.075,50.829 114.352 C 51.022 113.556,51.815 111.756,52.590 110.352 C 53.366 108.948,54.113 107.530,54.251 107.200 C 54.389 106.870,54.907 105.700,55.403 104.600 C 55.899 103.500,56.439 102.162,56.602 101.627 C 57.235 99.561,58.768 97.027,61.733 93.146 C 62.576 92.043,63.523 90.524,63.838 89.770 C 64.153 89.017,64.588 88.400,64.805 88.400 C 65.022 88.400,65.200 88.050,65.200 87.623 C 65.200 87.195,65.523 86.610,65.917 86.323 C 66.311 86.035,67.256 85.015,68.017 84.056 C 70.277 81.207,83.877 67.684,85.139 67.032 C 85.779 66.701,86.409 66.153,86.539 65.815 C 86.669 65.477,87.051 65.200,87.387 65.200 C 87.724 65.200,88.315 64.922,88.700 64.582 C 89.726 63.675,96.833 58.880,98.000 58.308 C 98.550 58.038,99.144 57.588,99.320 57.308 C 99.496 57.029,99.838 56.800,100.079 56.800 C 100.549 56.800,105.665 54.355,106.000 53.970 C 106.396 53.515,111.341 51.200,111.917 51.200 C 112.241 51.200,113.067 50.856,113.753 50.436 C 114.439 50.016,116.080 49.543,117.400 49.385 C 118.720 49.226,120.430 48.783,121.200 48.400 C 121.970 48.017,123.673 47.572,124.985 47.412 C 126.296 47.252,127.556 46.878,127.785 46.581 C 128.013 46.284,129.370 45.862,130.800 45.644 C 132.230 45.426,134.300 44.973,135.400 44.638 C 138.961 43.551,149.808 43.922,151.600 45.192 M258.039 45.064 C 258.348 45.320,260.130 45.744,262.000 46.008 C 263.870 46.271,266.702 46.827,268.293 47.243 C 269.884 47.659,272.049 48.000,273.104 48.000 C 274.159 48.000,275.377 48.248,275.811 48.550 C 276.245 48.853,277.950 49.470,279.600 49.922 C 281.250 50.374,284.400 51.500,286.600 52.424 C 288.800 53.348,291.444 54.409,292.475 54.782 C 293.506 55.155,294.586 55.645,294.875 55.872 C 295.164 56.098,296.795 56.946,298.500 57.757 C 300.205 58.567,301.600 59.386,301.600 59.576 C 301.600 59.766,302.095 60.121,302.700 60.364 C 303.305 60.608,304.520 61.344,305.400 61.999 C 306.280 62.655,308.080 63.808,309.400 64.561 C 310.720 65.314,312.250 66.414,312.800 67.005 C 313.350 67.596,314.790 68.722,316.000 69.507 C 317.210 70.293,318.430 71.220,318.710 71.568 C 318.991 71.915,321.786 74.810,324.922 78.000 C 328.058 81.190,331.143 84.573,331.778 85.517 C 332.413 86.462,333.129 87.362,333.369 87.517 C 333.939 87.887,335.696 90.328,336.308 91.600 C 336.573 92.150,337.695 93.860,338.802 95.400 C 340.952 98.390,348.133 112.545,348.584 114.681 C 348.733 115.386,349.175 116.376,349.567 116.881 C 349.958 117.387,350.387 118.618,350.520 119.618 C 350.653 120.618,351.040 121.968,351.379 122.618 C 351.718 123.268,351.996 124.631,351.998 125.646 C 351.999 126.828,352.266 127.835,352.740 128.446 C 353.226 129.073,353.573 130.426,353.751 132.392 C 353.901 134.038,354.397 136.918,354.854 138.792 C 356.872 147.059,354.713 152.657,348.423 155.474 C 343.600 157.633,339.872 156.256,334.579 150.360 C 332.621 148.179,328.062 144.000,327.641 144.000 C 327.428 144.000,327.140 143.640,327.000 143.200 C 326.860 142.760,326.599 142.400,326.419 142.400 C 326.239 142.400,325.036 141.402,323.746 140.182 C 320.287 136.910,312.744 131.620,311.520 131.607 C 311.146 131.603,310.696 131.373,310.520 131.096 C 310.127 130.478,307.367 128.667,305.545 127.832 C 304.805 127.493,303.930 127.040,303.600 126.824 C 302.477 126.091,295.410 122.935,292.400 121.823 C 290.750 121.213,288.590 120.374,287.600 119.958 C 286.610 119.541,284.842 119.121,283.671 119.025 C 282.500 118.928,281.288 118.639,280.978 118.382 C 280.094 117.648,269.307 115.626,266.200 115.611 C 264.660 115.603,261.780 115.314,259.800 114.967 C 256.773 114.438,255.340 114.407,250.800 114.775 C 247.830 115.016,242.970 115.375,240.000 115.573 C 237.030 115.771,234.060 116.147,233.400 116.409 C 232.740 116.671,230.907 117.036,229.327 117.220 C 227.748 117.404,225.642 117.925,224.649 118.377 C 223.656 118.830,222.429 119.204,221.922 119.209 C 221.415 119.214,220.212 119.575,219.248 120.012 C 218.285 120.449,216.755 120.920,215.848 121.057 C 214.942 121.195,213.750 121.527,213.200 121.796 C 206.986 124.828,204.441 126.003,203.600 126.227 C 203.050 126.374,202.330 126.716,202.000 126.986 C 201.670 127.256,200.570 127.869,199.555 128.348 C 198.540 128.827,196.830 129.784,195.755 130.476 C 189.747 134.341,187.270 136.033,186.813 136.584 C 186.532 136.923,186.121 137.200,185.900 137.200 C 185.449 137.200,178.946 142.630,178.492 143.386 C 178.331 143.653,177.916 144.035,177.569 144.235 C 177.222 144.436,175.083 146.670,172.817 149.200 C 170.551 151.730,168.000 154.548,167.148 155.462 C 166.297 156.376,165.600 157.251,165.600 157.407 C 165.600 157.562,164.862 158.571,163.959 159.648 C 161.848 162.170,160.703 163.878,160.037 165.500 C 159.743 166.215,159.357 166.800,159.178 166.800 C 159.000 166.800,158.727 167.205,158.572 167.700 C 158.417 168.195,157.967 169.013,157.573 169.519 C 157.178 170.024,156.743 170.948,156.606 171.571 C 156.299 172.970,151.267 177.693,149.700 178.053 C 140.937 180.065,135.431 175.998,134.776 167.027 C 134.582 164.372,134.238 161.571,134.012 160.803 C 133.475 158.980,133.481 152.365,134.021 150.944 C 134.253 150.335,134.622 147.218,134.841 144.018 C 135.077 140.568,135.557 137.117,136.020 135.538 C 136.449 134.074,136.800 131.821,136.800 130.532 C 136.800 128.935,137.061 127.702,137.618 126.662 C 138.068 125.822,138.598 124.385,138.795 123.468 C 139.192 121.625,140.529 117.663,141.383 115.800 C 141.685 115.140,142.427 113.430,143.031 112.000 C 143.635 110.570,144.910 107.917,145.865 106.104 C 146.819 104.292,147.600 102.510,147.600 102.146 C 147.600 101.781,148.236 100.706,149.014 99.757 C 149.791 98.808,150.689 97.440,151.008 96.716 C 151.328 95.992,152.086 94.734,152.694 93.919 C 153.302 93.105,154.340 91.692,155.000 90.780 C 155.660 89.868,157.055 88.067,158.100 86.779 C 159.145 85.490,160.000 84.339,160.000 84.221 C 160.000 83.928,163.912 79.737,167.837 75.826 C 171.462 72.213,179.341 65.900,183.600 63.196 C 183.930 62.986,184.830 62.398,185.600 61.890 C 186.370 61.381,187.810 60.572,188.800 60.093 C 191.018 59.019,194.672 56.743,195.963 55.630 C 196.493 55.174,197.308 54.800,197.774 54.800 C 198.241 54.800,198.977 54.557,199.411 54.260 C 199.845 53.963,200.740 53.590,201.400 53.433 C 202.060 53.275,203.050 52.844,203.600 52.476 C 204.583 51.817,207.386 50.880,211.469 49.844 C 212.607 49.556,213.835 49.023,214.197 48.660 C 214.650 48.207,215.570 47.994,217.129 47.982 C 218.378 47.973,220.120 47.686,221.000 47.345 C 221.880 47.004,224.850 46.462,227.600 46.142 C 230.350 45.821,233.320 45.298,234.200 44.980 C 236.257 44.236,257.127 44.310,258.039 45.064 M251.400 133.629 C 253.600 133.819,257.549 134.157,260.176 134.380 C 262.803 134.604,266.403 135.137,268.176 135.567 C 269.949 135.996,272.030 136.469,272.800 136.620 C 273.570 136.770,274.650 137.125,275.200 137.410 C 276.238 137.947,280.414 139.372,282.729 139.980 C 283.460 140.172,284.375 140.615,284.761 140.964 C 285.147 141.314,285.798 141.600,286.208 141.600 C 286.618 141.600,288.764 142.480,290.977 143.555 C 293.189 144.630,295.450 145.644,296.000 145.809 C 296.550 145.973,297.720 146.597,298.600 147.194 C 300.588 148.545,302.305 149.677,303.159 150.200 C 306.186 152.055,307.291 152.795,309.262 154.287 C 310.507 155.229,311.718 156.000,311.953 156.000 C 312.189 156.000,312.676 156.450,313.037 157.000 C 313.397 157.550,313.866 158.000,314.079 158.000 C 315.283 158.000,327.909 170.249,330.192 173.633 C 330.848 174.605,331.987 176.030,332.722 176.800 C 333.457 177.570,334.341 178.740,334.685 179.400 C 335.030 180.060,335.454 180.693,335.628 180.806 C 336.960 181.675,343.600 193.033,343.600 194.443 C 343.600 194.761,343.960 195.330,344.400 195.707 C 344.840 196.084,345.200 196.730,345.200 197.142 C 345.200 197.555,345.551 198.339,345.981 198.885 C 346.817 199.948,347.672 202.043,348.737 205.640 C 349.102 206.872,349.641 208.170,349.936 208.525 C 350.231 208.879,350.569 209.941,350.689 210.884 C 350.808 211.828,351.167 212.902,351.488 213.270 C 351.808 213.639,352.243 215.332,352.454 217.032 C 352.665 218.732,353.025 220.474,353.255 220.902 C 353.484 221.331,353.837 222.849,354.039 224.276 C 354.241 225.703,354.720 227.799,355.103 228.935 C 356.032 231.686,356.154 256.636,355.253 259.600 C 354.953 260.590,354.480 263.235,354.203 265.479 C 353.872 268.164,353.478 269.779,353.050 270.207 C 352.645 270.613,352.400 271.527,352.400 272.639 C 352.400 273.618,352.058 275.393,351.640 276.583 C 351.222 277.773,350.749 279.516,350.590 280.456 C 350.272 282.341,348.634 286.945,347.836 288.200 C 347.556 288.640,347.194 289.540,347.032 290.200 C 346.870 290.860,346.504 291.670,346.219 292.000 C 345.934 292.330,345.485 293.272,345.221 294.094 C 344.958 294.916,344.567 295.697,344.354 295.828 C 344.141 295.960,343.684 296.773,343.340 297.634 C 342.995 298.495,342.573 299.200,342.401 299.200 C 342.229 299.200,341.975 299.807,341.836 300.549 C 341.697 301.290,341.272 302.276,340.892 302.738 C 340.511 303.201,339.750 304.226,339.200 305.017 C 338.650 305.808,337.795 306.964,337.300 307.585 C 336.805 308.207,336.397 308.870,336.394 309.058 C 336.391 309.246,335.755 310.300,334.983 311.400 C 334.210 312.500,333.284 313.850,332.924 314.400 C 332.565 314.950,331.229 316.480,329.956 317.800 C 328.683 319.120,326.777 321.205,325.721 322.433 C 324.664 323.661,323.106 325.281,322.257 326.033 C 321.408 326.785,319.501 328.615,318.020 330.100 C 316.538 331.585,315.038 332.800,314.686 332.800 C 314.334 332.800,313.810 333.115,313.523 333.500 C 312.948 334.270,309.946 336.400,309.436 336.400 C 309.123 336.400,307.208 337.833,305.986 338.982 C 304.483 340.395,302.094 341.717,300.708 341.903 C 299.879 342.014,299.200 342.259,299.200 342.448 C 299.200 342.965,296.038 344.854,294.430 345.298 C 293.650 345.513,292.580 346.029,292.052 346.445 C 291.524 346.860,290.781 347.200,290.400 347.200 C 290.019 347.200,289.264 347.549,288.722 347.975 C 288.180 348.402,287.211 348.880,286.568 349.038 C 285.926 349.197,285.028 349.567,284.574 349.861 C 284.120 350.155,282.860 350.511,281.774 350.654 C 280.688 350.796,279.334 351.147,278.764 351.433 C 278.194 351.720,276.484 352.167,274.964 352.428 C 273.444 352.689,271.733 353.139,271.163 353.429 C 270.592 353.719,269.152 354.074,267.963 354.218 C 266.773 354.363,264.900 354.739,263.800 355.056 C 260.690 355.950,251.652 356.207,250.400 355.437 C 249.850 355.098,248.860 354.559,248.200 354.239 C 243.991 352.198,241.438 342.553,244.300 339.506 C 244.795 338.980,245.200 338.353,245.200 338.115 C 245.200 337.599,248.303 334.446,251.020 332.200 C 253.493 330.156,255.145 328.403,255.423 327.529 C 255.543 327.151,255.992 326.730,256.420 326.594 C 256.849 326.457,257.200 326.004,257.200 325.586 C 257.200 325.169,257.785 324.229,258.500 323.499 C 261.281 320.658,264.158 317.188,264.619 316.120 C 264.885 315.504,265.660 314.476,266.341 313.835 C 267.422 312.818,270.000 308.231,270.000 307.324 C 270.000 307.144,270.619 306.127,271.376 305.063 C 273.040 302.721,275.000 298.708,275.406 296.811 C 275.569 296.047,276.301 294.247,277.031 292.811 C 279.125 288.698,280.030 286.031,280.416 282.846 C 280.612 281.222,281.045 279.592,281.377 279.225 C 281.710 278.858,282.180 277.127,282.423 275.379 C 282.666 273.630,283.137 271.480,283.470 270.600 C 284.357 268.255,284.367 239.823,283.482 236.000 C 283.151 234.570,282.755 232.230,282.602 230.800 C 282.449 229.370,282.069 227.797,281.756 227.305 C 281.444 226.813,280.932 225.068,280.618 223.427 C 280.304 221.786,279.789 220.029,279.473 219.522 C 279.158 219.015,278.688 217.716,278.428 216.637 C 278.169 215.557,277.696 214.302,277.378 213.848 C 277.060 213.394,276.794 212.747,276.787 212.411 C 276.781 212.075,276.332 210.900,275.791 209.800 C 275.250 208.700,274.806 207.597,274.804 207.349 C 274.802 207.101,274.535 206.678,274.211 206.409 C 273.886 206.140,273.508 205.314,273.369 204.574 C 273.230 203.834,272.877 203.030,272.584 202.787 C 272.291 202.544,271.926 201.775,271.773 201.078 C 271.620 200.381,271.221 199.611,270.886 199.366 C 270.551 199.121,269.990 198.362,269.639 197.678 C 268.239 194.954,264.285 188.832,263.371 187.973 C 262.837 187.471,262.400 186.732,262.400 186.330 C 262.400 185.929,262.247 185.600,262.060 185.600 C 261.873 185.600,260.928 184.585,259.960 183.345 C 256.592 179.029,244.097 167.297,240.429 165.006 C 239.454 164.398,238.014 163.267,237.229 162.494 C 236.443 161.721,235.049 160.752,234.132 160.340 C 233.214 159.928,232.404 159.458,232.332 159.295 C 232.259 159.133,231.030 158.397,229.600 157.661 C 222.540 154.024,218.797 147.849,220.786 143.119 C 220.999 142.613,221.356 141.472,221.580 140.582 C 221.880 139.388,222.416 138.653,223.624 137.782 C 224.524 137.132,225.817 136.154,226.496 135.609 C 227.385 134.896,228.467 134.536,230.365 134.322 C 231.814 134.159,234.080 133.864,235.400 133.665 C 238.471 133.204,246.259 133.187,251.400 133.629 M162.533 169.429 C 162.275 170.102,161.753 170.171,161.388 169.581 C 160.907 168.802,161.537 167.850,162.181 168.384 C 162.495 168.645,162.654 169.115,162.533 169.429 M259.252 222.686 C 260.270 223.230,261.961 224.545,263.009 225.609 L 264.914 227.543 265.340 231.671 C 266.262 240.606,265.767 260.216,264.544 263.179 C 264.231 263.938,263.806 265.747,263.600 267.201 C 263.394 268.654,262.575 271.993,261.780 274.621 C 260.985 277.250,260.061 280.390,259.727 281.600 C 259.393 282.810,258.865 284.087,258.555 284.437 C 258.244 284.787,257.439 286.587,256.765 288.437 C 256.091 290.287,255.049 292.610,254.449 293.600 C 253.849 294.590,252.694 296.750,251.881 298.400 C 250.576 301.049,247.277 305.973,243.300 311.209 C 242.585 312.150,242.000 313.145,242.000 313.420 C 242.000 313.694,240.370 315.602,238.377 317.660 C 236.384 319.717,233.645 322.705,232.289 324.300 C 230.934 325.895,229.591 327.200,229.307 327.200 C 228.730 327.200,225.062 330.032,222.600 332.378 C 221.720 333.217,220.328 334.118,219.507 334.380 C 218.681 334.644,217.636 335.387,217.169 336.043 C 216.383 337.147,215.329 337.845,212.127 339.378 C 211.427 339.714,210.745 340.165,210.612 340.381 C 210.237 340.988,197.586 347.200,196.726 347.200 C 196.307 347.200,194.308 347.820,192.283 348.577 C 190.257 349.335,187.854 350.121,186.942 350.325 C 186.030 350.529,184.865 350.990,184.353 351.348 C 183.841 351.707,182.738 352.000,181.901 352.000 C 181.064 352.000,179.350 352.375,178.090 352.832 C 176.697 353.339,173.608 353.879,170.200 354.211 C 167.120 354.512,162.710 354.961,160.400 355.210 C 156.137 355.669,148.844 355.462,144.492 354.758 C 143.232 354.554,140.689 354.223,138.843 354.023 C 136.996 353.822,134.386 353.389,133.043 353.060 C 131.699 352.732,129.340 352.245,127.800 351.978 C 126.260 351.711,124.370 351.264,123.600 350.986 C 122.830 350.707,120.580 349.993,118.600 349.399 C 116.620 348.805,114.490 348.067,113.868 347.760 C 113.245 347.452,112.572 347.200,112.372 347.200 C 112.039 347.200,101.357 342.187,99.326 341.077 C 97.939 340.320,94.996 338.362,92.085 336.262 C 90.608 335.196,88.590 333.859,87.600 333.290 C 86.610 332.722,85.254 331.704,84.587 331.028 C 83.920 330.353,82.781 329.350,82.057 328.800 C 80.158 327.359,70.804 317.943,69.472 316.133 C 68.852 315.290,67.286 313.160,65.991 311.400 C 64.697 309.640,63.298 307.750,62.884 307.200 C 62.470 306.650,61.611 305.300,60.977 304.200 C 59.463 301.576,58.268 299.811,57.458 299.000 C 57.096 298.639,56.800 297.949,56.800 297.468 C 56.800 296.987,56.332 295.715,55.760 294.640 C 53.651 290.678,50.509 283.336,50.008 281.200 C 49.725 279.990,49.228 278.478,48.905 277.841 C 48.582 277.203,48.142 275.403,47.927 273.841 C 47.711 272.278,47.296 270.730,47.005 270.400 C 46.713 270.070,46.269 268.090,46.019 266.000 C 45.769 263.910,45.301 260.681,44.978 258.825 C 44.107 253.810,45.620 247.680,48.110 246.130 C 53.124 243.010,60.383 243.273,62.600 246.656 C 62.915 247.137,63.944 248.255,64.887 249.139 C 65.829 250.024,67.903 251.975,69.495 253.474 C 71.088 254.973,73.662 257.280,75.217 258.600 C 76.772 259.920,78.889 261.768,79.922 262.706 C 80.955 263.644,82.430 264.828,83.200 265.336 C 87.834 268.396,89.714 269.541,92.370 270.922 C 94.003 271.771,95.980 272.901,96.763 273.433 C 97.545 273.965,98.355 274.400,98.561 274.400 C 98.768 274.400,99.221 274.643,99.569 274.940 C 99.916 275.237,101.190 275.792,102.400 276.172 C 103.610 276.553,105.950 277.466,107.600 278.202 C 111.194 279.804,117.930 281.713,126.400 283.530 C 133.137 284.974,153.414 285.842,156.676 284.825 C 157.294 284.632,160.500 284.255,163.800 283.988 C 167.584 283.681,170.026 283.305,170.411 282.970 C 170.746 282.677,172.636 282.062,174.611 281.602 C 182.351 279.798,184.043 279.214,190.140 276.236 C 192.593 275.038,195.410 273.852,196.400 273.601 C 199.241 272.878,200.417 272.221,209.052 266.523 C 213.236 263.763,213.450 263.595,218.358 259.206 C 226.482 251.941,232.776 245.297,236.291 240.273 C 236.781 239.573,238.039 237.830,239.088 236.400 C 240.136 234.970,241.400 232.990,241.897 232.000 C 246.798 222.232,252.586 219.125,259.252 222.686 " stroke="none" fill="#050b23" fill-rule="evenodd"></path><path id="path4" d="M135.400 44.638 C 134.300 44.973,132.230 45.426,130.800 45.644 C 129.370 45.862,128.013 46.284,127.785 46.581 C 127.556 46.878,126.296 47.252,124.985 47.412 C 123.673 47.572,121.970 48.017,121.200 48.400 C 120.430 48.783,118.720 49.226,117.400 49.385 C 116.080 49.543,114.439 50.016,113.753 50.436 C 113.067 50.856,112.241 51.200,111.917 51.200 C 111.341 51.200,106.396 53.515,106.000 53.970 C 105.665 54.355,100.549 56.800,100.079 56.800 C 99.838 56.800,99.496 57.029,99.320 57.308 C 99.144 57.588,98.550 58.038,98.000 58.308 C 96.833 58.880,89.726 63.675,88.700 64.582 C 88.315 64.922,87.724 65.200,87.387 65.200 C 87.051 65.200,86.669 65.477,86.539 65.815 C 86.409 66.153,85.779 66.701,85.139 67.032 C 83.877 67.684,70.277 81.207,68.017 84.056 C 67.256 85.015,66.311 86.035,65.917 86.323 C 65.523 86.610,65.200 87.195,65.200 87.623 C 65.200 88.050,65.022 88.400,64.805 88.400 C 64.588 88.400,64.153 89.017,63.838 89.770 C 63.523 90.524,62.576 92.043,61.733 93.146 C 58.768 97.027,57.235 99.561,56.602 101.627 C 56.439 102.162,55.899 103.500,55.403 104.600 C 54.907 105.700,54.389 106.870,54.251 107.200 C 54.113 107.530,53.366 108.948,52.590 110.352 C 51.815 111.756,51.022 113.556,50.829 114.352 C 50.168 117.075,48.852 121.798,48.252 123.600 C 47.298 126.465,47.027 127.677,44.940 138.400 C 43.890 143.792,43.832 167.999,44.862 170.800 C 45.226 171.790,45.628 173.983,45.755 175.674 C 45.881 177.364,46.254 179.434,46.583 180.274 C 46.912 181.113,47.345 182.790,47.546 184.000 C 47.890 186.074,48.731 188.459,50.452 192.244 C 50.864 193.148,51.201 194.138,51.202 194.444 C 51.208 195.850,52.149 198.141,53.222 199.364 C 53.870 200.102,54.400 201.024,54.400 201.414 C 54.400 201.804,54.837 203.046,55.371 204.174 C 55.904 205.303,56.462 206.708,56.610 207.297 C 56.758 207.885,57.131 208.577,57.439 208.833 C 57.748 209.089,58.000 209.532,58.000 209.818 C 58.000 210.104,58.417 210.847,58.927 211.469 C 59.436 212.091,60.227 213.410,60.683 214.400 C 61.139 215.390,61.892 216.543,62.356 216.962 C 62.820 217.381,63.200 217.960,63.200 218.249 C 63.200 218.746,64.987 220.962,66.500 222.340 C 66.885 222.691,67.200 223.199,67.200 223.469 C 67.200 223.739,67.965 224.775,68.900 225.773 C 69.835 226.770,71.770 228.890,73.200 230.483 C 76.978 234.693,80.399 238.089,81.996 239.215 C 82.763 239.757,83.838 240.695,84.385 241.300 C 84.931 241.905,85.533 242.400,85.722 242.400 C 85.911 242.400,86.816 243.008,87.733 243.750 C 88.650 244.493,89.985 245.397,90.700 245.760 C 91.415 246.124,92.000 246.584,92.000 246.783 C 92.000 246.983,92.405 247.273,92.900 247.428 C 93.732 247.688,94.731 248.393,97.134 250.414 C 97.648 250.846,98.278 251.201,98.534 251.203 C 98.790 251.204,100.255 252.014,101.788 253.003 C 103.321 253.991,104.874 254.800,105.239 254.800 C 105.604 254.800,106.122 255.065,106.391 255.389 C 106.660 255.714,107.537 256.100,108.340 256.248 C 109.143 256.396,110.427 256.851,111.194 257.259 C 111.961 257.666,112.792 258.000,113.040 258.000 C 113.289 258.000,113.921 258.336,114.446 258.747 C 114.971 259.158,116.304 259.688,117.408 259.923 C 118.513 260.159,119.953 260.632,120.608 260.974 C 121.264 261.315,122.073 261.596,122.406 261.598 C 122.739 261.599,123.694 261.966,124.528 262.413 C 125.362 262.860,127.409 263.398,129.078 263.610 C 130.746 263.821,132.350 264.192,132.641 264.434 C 132.932 264.676,135.112 265.023,137.485 265.205 C 139.858 265.388,143.060 265.753,144.600 266.016 C 152.818 267.423,171.985 266.291,174.295 264.263 C 177.391 261.545,177.892 260.875,178.920 258.087 C 181.155 252.019,178.799 246.811,172.089 242.989 C 171.490 242.648,170.280 241.932,169.400 241.398 C 168.520 240.865,167.170 240.132,166.400 239.769 C 165.145 239.179,163.995 238.280,160.284 234.990 C 159.670 234.445,158.921 234.000,158.620 234.000 C 157.340 234.000,150.374 227.474,142.037 218.464 C 138.087 214.196,137.507 213.475,136.195 211.200 C 134.199 207.738,133.702 206.981,132.158 205.050 C 131.255 203.921,130.396 202.616,130.248 202.151 C 130.100 201.686,129.624 200.984,129.190 200.591 C 128.755 200.198,128.400 199.617,128.400 199.300 C 128.400 198.983,128.150 198.246,127.845 197.662 C 125.910 193.962,122.800 187.251,122.797 186.771 C 122.796 186.457,122.437 185.660,122.000 185.000 C 121.563 184.340,121.204 183.280,121.203 182.644 C 121.201 182.008,120.857 180.748,120.437 179.844 C 119.107 176.975,118.037 172.971,117.575 169.126 C 117.328 167.077,116.865 164.410,116.544 163.200 C 114.552 155.674,116.075 125.206,118.673 120.617 C 119.042 119.966,119.568 118.166,119.843 116.617 C 120.726 111.645,121.514 109.343,124.052 104.321 C 124.464 103.507,124.800 102.641,124.800 102.396 C 124.800 101.938,126.559 97.870,127.219 96.800 C 127.423 96.470,127.883 95.660,128.242 95.000 C 128.600 94.340,129.211 93.440,129.599 93.000 C 129.988 92.560,131.053 90.850,131.967 89.200 C 132.881 87.550,134.041 85.831,134.544 85.380 C 135.047 84.929,135.889 83.759,136.415 82.780 C 136.941 81.801,138.200 80.010,139.212 78.800 C 140.225 77.590,141.482 76.012,142.006 75.294 C 143.074 73.831,148.624 68.111,150.110 66.943 C 150.639 66.526,151.288 65.783,151.551 65.292 C 151.813 64.802,152.267 64.400,152.558 64.400 C 155.768 64.400,158.394 52.467,155.812 49.613 C 155.475 49.241,155.200 48.760,155.200 48.543 C 155.200 48.091,153.633 46.633,151.600 45.192 C 149.808 43.922,138.961 43.551,135.400 44.638 M234.456 44.841 C 232.467 45.440,233.075 45.571,235.800 45.129 C 238.277 44.728,254.145 44.947,257.000 45.421 C 258.341 45.644,258.516 45.599,258.080 45.144 C 257.429 44.462,236.599 44.195,234.456 44.841 M149.241 46.193 C 151.535 46.993,153.873 49.090,154.191 50.631 C 154.323 51.274,154.695 52.310,155.016 52.932 C 155.757 54.370,155.747 55.744,154.980 57.948 C 153.980 60.817,153.345 61.788,151.119 63.840 C 144.726 69.736,136.230 79.245,134.686 82.233 C 134.336 82.911,133.393 84.251,132.591 85.211 C 131.789 86.171,130.563 88.018,129.866 89.315 C 128.113 92.579,127.427 93.794,126.724 94.872 C 126.391 95.382,125.175 97.960,124.022 100.600 C 122.868 103.240,121.581 106.132,121.162 107.026 C 120.743 107.921,120.400 108.866,120.400 109.128 C 120.400 109.389,120.040 110.275,119.600 111.096 C 119.160 111.916,118.800 113.349,118.800 114.279 C 118.800 115.209,118.452 116.853,118.027 117.932 C 115.737 123.742,113.863 138.434,114.115 148.600 C 114.311 156.486,115.541 168.806,116.271 170.200 C 116.502 170.640,116.813 171.803,116.963 172.783 C 117.220 174.462,119.179 180.846,121.509 187.600 C 122.079 189.250,123.322 192.128,124.272 193.996 C 125.222 195.865,126.000 197.592,126.000 197.834 C 126.000 198.077,126.360 198.602,126.800 199.000 C 127.240 199.398,127.600 199.921,127.601 200.162 C 127.602 200.919,130.051 205.318,131.557 207.270 C 132.351 208.299,133.890 210.549,134.978 212.270 C 136.852 215.234,138.086 216.800,140.417 219.167 C 140.977 219.735,142.327 221.401,143.417 222.870 C 144.508 224.338,145.850 225.809,146.400 226.138 C 146.950 226.468,148.919 228.191,150.775 229.969 C 152.631 231.746,154.277 233.200,154.432 233.200 C 154.587 233.200,156.578 234.607,158.857 236.326 C 163.283 239.666,166.407 241.746,169.487 243.402 C 175.769 246.782,177.601 249.217,177.642 254.245 C 177.675 258.378,176.344 260.573,172.101 263.381 C 170.016 264.760,160.106 265.377,149.200 264.807 C 141.560 264.407,140.054 264.230,132.600 262.853 C 128.428 262.082,126.870 261.656,122.200 260.009 C 121.100 259.621,118.940 258.898,117.400 258.404 C 115.860 257.909,114.018 257.173,113.306 256.769 C 112.594 256.365,111.334 255.850,110.506 255.624 C 109.678 255.399,107.650 254.414,106.000 253.435 C 104.350 252.456,101.736 251.024,100.190 250.252 C 98.645 249.480,96.161 247.938,94.672 246.824 C 93.182 245.711,91.876 244.800,91.770 244.800 C 91.664 244.800,90.666 244.080,89.552 243.200 C 88.439 242.320,87.191 241.600,86.778 241.600 C 86.366 241.600,85.859 241.285,85.652 240.900 C 85.445 240.515,84.439 239.390,83.416 238.400 C 79.424 234.536,71.200 226.245,71.200 226.084 C 71.200 225.787,66.120 219.398,65.424 218.820 C 65.055 218.514,64.487 217.626,64.161 216.846 C 63.836 216.066,63.429 215.332,63.258 215.214 C 63.087 215.096,62.342 213.932,61.602 212.626 C 60.862 211.321,59.675 209.370,58.965 208.290 C 58.254 207.211,57.088 204.707,56.374 202.727 C 55.660 200.747,54.834 199.034,54.539 198.921 C 54.243 198.808,53.390 196.799,52.642 194.457 C 51.894 192.116,50.995 189.660,50.644 189.000 C 50.292 188.340,50.004 187.533,50.002 187.208 C 50.001 186.882,49.656 185.712,49.236 184.608 C 48.549 182.802,47.770 179.141,46.724 172.800 C 45.549 165.675,45.004 154.054,45.552 147.800 C 46.381 138.338,46.820 134.586,47.200 133.697 C 47.412 133.200,47.774 131.580,48.003 130.097 C 48.402 127.524,49.836 122.324,51.039 119.092 C 51.347 118.262,51.603 117.092,51.606 116.492 C 51.609 115.891,51.834 115.008,52.106 114.529 C 52.378 114.051,53.079 112.841,53.665 111.842 C 54.251 110.843,54.949 109.344,55.217 108.513 C 55.485 107.681,55.835 106.820,55.994 106.600 C 56.154 106.380,57.046 104.528,57.978 102.484 C 59.399 99.368,61.789 95.451,65.509 90.140 C 72.253 80.511,86.028 67.184,93.584 62.977 C 94.505 62.464,96.115 61.314,97.608 60.100 C 98.217 59.605,98.811 59.200,98.927 59.200 C 99.044 59.200,101.088 58.277,103.470 57.149 C 110.046 54.034,111.020 53.600,111.433 53.600 C 111.643 53.600,112.441 53.181,113.207 52.668 C 114.694 51.673,117.346 50.740,120.608 50.064 C 121.713 49.835,123.153 49.368,123.808 49.026 C 124.464 48.685,125.334 48.404,125.742 48.402 C 126.151 48.401,127.591 48.111,128.942 47.758 C 137.925 45.412,145.361 44.839,149.241 46.193 M214.412 48.384 C 213.429 49.006,214.107 49.093,215.800 48.562 C 217.317 48.088,217.338 48.060,216.200 48.037 C 215.540 48.023,214.735 48.180,214.412 48.384 M274.600 48.612 C 276.597 49.331,276.801 49.327,275.824 48.587 C 275.396 48.264,274.586 48.008,274.024 48.018 C 273.176 48.032,273.275 48.134,274.600 48.612 M205.329 51.478 C 204.850 51.572,204.243 51.907,203.980 52.224 C 203.360 52.971,203.828 52.913,205.800 52.000 C 207.337 51.289,207.183 51.118,205.329 51.478 M197.764 54.777 C 197.083 54.940,196.121 55.479,195.624 55.976 L 194.721 56.879 195.661 56.589 C 197.032 56.165,198.712 55.266,198.998 54.803 C 199.135 54.581,199.192 54.418,199.124 54.441 C 199.056 54.463,198.444 54.615,197.764 54.777 M293.233 55.346 C 294.040 56.051,295.352 56.473,294.851 55.865 C 294.549 55.499,294.024 55.200,293.684 55.200 C 293.345 55.200,293.142 55.266,293.233 55.346 M315.600 69.364 C 315.600 69.441,316.439 70.191,317.464 71.031 C 318.490 71.872,319.165 72.267,318.964 71.909 C 318.636 71.324,315.600 69.027,315.600 69.364 M167.779 75.700 C 164.413 79.184,162.986 80.800,163.275 80.800 C 163.393 80.800,165.150 79.000,167.180 76.800 C 171.483 72.137,171.822 71.514,167.779 75.700 M161.100 82.794 C 159.813 84.146,159.617 84.871,160.837 83.766 C 161.570 83.103,162.627 81.566,162.314 81.619 C 162.251 81.630,161.705 82.158,161.100 82.794 M243.800 114.847 C 241.820 115.033,239.840 115.261,239.400 115.355 C 238.345 115.579,246.570 115.162,250.400 114.797 L 253.400 114.512 250.400 114.510 C 248.750 114.509,245.780 114.660,243.800 114.847 M260.200 115.020 C 261.740 115.312,263.900 115.541,265.000 115.529 C 266.482 115.513,265.965 115.370,263.000 114.976 C 257.953 114.305,256.543 114.327,260.200 115.020 M349.387 117.165 C 349.574 117.476,349.861 118.286,350.023 118.965 L 350.318 120.200 350.359 118.949 C 350.383 118.216,350.120 117.471,349.723 117.149 C 349.146 116.681,349.097 116.683,349.387 117.165 M223.000 118.646 C 221.411 119.205,221.409 119.207,222.788 118.997 C 223.551 118.880,224.352 118.608,224.568 118.392 C 225.031 117.929,225.048 117.926,223.000 118.646 M280.800 118.167 C 280.800 118.697,282.923 119.237,283.345 118.815 C 283.632 118.528,283.498 118.400,282.913 118.400 C 282.447 118.400,281.781 118.291,281.433 118.157 C 281.085 118.024,280.800 118.028,280.800 118.167 M137.446 126.960 C 137.091 127.709,136.814 129.104,136.832 130.060 L 136.864 131.800 137.396 129.400 C 137.688 128.080,138.053 126.685,138.207 126.300 C 138.707 125.045,138.108 125.564,137.446 126.960 M353.152 130.087 C 353.337 131.198,353.393 131.255,353.519 130.454 C 353.601 129.933,353.503 129.343,353.301 129.141 C 353.079 128.919,353.021 129.293,353.152 130.087 M310.400 130.809 C 310.400 131.038,310.678 131.332,311.017 131.462 C 311.955 131.822,312.066 131.433,311.182 130.881 C 310.687 130.572,310.400 130.546,310.400 130.809 M235.400 133.665 C 234.080 133.864,231.814 134.159,230.365 134.322 C 228.467 134.536,227.385 134.896,226.496 135.609 C 225.817 136.154,224.524 137.132,223.624 137.782 C 222.416 138.653,221.880 139.388,221.580 140.582 C 221.356 141.472,220.999 142.613,220.786 143.119 C 218.797 147.849,222.540 154.024,229.600 157.661 C 231.030 158.397,232.259 159.133,232.332 159.295 C 232.404 159.458,233.214 159.928,234.132 160.340 C 235.049 160.752,236.443 161.721,237.229 162.494 C 238.014 163.267,239.454 164.398,240.429 165.006 C 244.097 167.297,256.592 179.029,259.960 183.345 C 260.928 184.585,261.873 185.600,262.060 185.600 C 262.247 185.600,262.400 185.929,262.400 186.330 C 262.400 186.732,262.837 187.471,263.371 187.973 C 264.285 188.832,268.239 194.954,269.639 197.678 C 269.990 198.362,270.551 199.121,270.886 199.366 C 271.221 199.611,271.620 200.381,271.773 201.078 C 271.926 201.775,272.291 202.544,272.584 202.787 C 272.877 203.030,273.230 203.834,273.369 204.574 C 273.508 205.314,273.886 206.140,274.211 206.409 C 274.535 206.678,274.802 207.101,274.804 207.349 C 274.806 207.597,275.250 208.700,275.791 209.800 C 276.332 210.900,276.781 212.075,276.787 212.411 C 276.794 212.747,277.060 213.394,277.378 213.848 C 277.696 214.302,278.169 215.557,278.428 216.637 C 278.688 217.716,279.158 219.015,279.473 219.522 C 279.789 220.029,280.304 221.786,280.618 223.427 C 280.932 225.068,281.444 226.813,281.756 227.305 C 282.069 227.797,282.449 229.370,282.602 230.800 C 282.755 232.230,283.151 234.570,283.482 236.000 C 284.367 239.823,284.357 268.255,283.470 270.600 C 283.137 271.480,282.666 273.630,282.423 275.379 C 282.180 277.127,281.710 278.858,281.377 279.225 C 281.045 279.592,280.612 281.222,280.416 282.846 C 280.030 286.031,279.125 288.698,277.031 292.811 C 276.301 294.247,275.569 296.047,275.406 296.811 C 275.000 298.708,273.040 302.721,271.376 305.063 C 270.619 306.127,270.000 307.144,270.000 307.324 C 270.000 308.231,267.422 312.818,266.341 313.835 C 265.660 314.476,264.885 315.504,264.619 316.120 C 264.158 317.188,261.281 320.658,258.500 323.499 C 257.785 324.229,257.200 325.169,257.200 325.586 C 257.200 326.004,256.849 326.457,256.420 326.594 C 255.992 326.730,255.543 327.151,255.423 327.529 C 255.145 328.403,253.493 330.156,251.020 332.200 C 248.303 334.446,245.200 337.599,245.200 338.115 C 245.200 338.353,244.795 338.980,244.300 339.506 C 242.773 341.132,242.961 347.943,244.600 350.395 C 246.392 353.075,246.885 353.601,248.200 354.239 C 248.860 354.559,249.850 355.098,250.400 355.437 C 251.652 356.207,260.690 355.950,263.800 355.056 C 264.900 354.739,266.773 354.363,267.963 354.218 C 269.152 354.074,270.592 353.719,271.163 353.429 C 271.733 353.139,273.444 352.689,274.964 352.428 C 276.484 352.167,278.194 351.720,278.764 351.433 C 279.334 351.147,280.688 350.796,281.774 350.654 C 282.860 350.511,284.120 350.155,284.574 349.861 C 285.028 349.567,285.926 349.197,286.568 349.038 C 287.211 348.880,288.180 348.402,288.722 347.975 C 289.264 347.549,290.019 347.200,290.400 347.200 C 290.781 347.200,291.524 346.860,292.052 346.445 C 292.580 346.029,293.650 345.513,294.430 345.298 C 296.038 344.854,299.200 342.965,299.200 342.448 C 299.200 342.259,299.879 342.014,300.708 341.903 C 302.094 341.717,304.483 340.395,305.986 338.982 C 307.208 337.833,309.123 336.400,309.436 336.400 C 309.946 336.400,312.948 334.270,313.523 333.500 C 313.810 333.115,314.334 332.800,314.686 332.800 C 315.038 332.800,316.538 331.585,318.020 330.100 C 319.501 328.615,321.408 326.785,322.257 326.033 C 323.106 325.281,324.664 323.661,325.721 322.433 C 326.777 321.205,328.683 319.120,329.956 317.800 C 331.229 316.480,332.565 314.950,332.924 314.400 C 333.284 313.850,334.210 312.500,334.983 311.400 C 335.755 310.300,336.391 309.246,336.394 309.058 C 336.397 308.870,336.805 308.207,337.300 307.585 C 337.795 306.964,338.650 305.808,339.200 305.017 C 339.750 304.226,340.511 303.201,340.892 302.738 C 341.272 302.276,341.697 301.290,341.836 300.549 C 341.975 299.807,342.229 299.200,342.401 299.200 C 342.573 299.200,342.995 298.495,343.340 297.634 C 343.684 296.773,344.141 295.960,344.354 295.828 C 344.567 295.697,344.958 294.916,345.221 294.094 C 345.485 293.272,345.934 292.330,346.219 292.000 C 346.504 291.670,346.870 290.860,347.032 290.200 C 347.194 289.540,347.556 288.640,347.836 288.200 C 348.634 286.945,350.272 282.341,350.590 280.456 C 350.749 279.516,351.222 277.773,351.640 276.583 C 352.058 275.393,352.400 273.618,352.400 272.639 C 352.400 271.527,352.645 270.613,353.050 270.207 C 353.478 269.779,353.872 268.164,354.203 265.479 C 354.480 263.235,354.953 260.590,355.253 259.600 C 356.154 256.636,356.032 231.686,355.103 228.935 C 354.720 227.799,354.241 225.703,354.039 224.276 C 353.837 222.849,353.484 221.331,353.255 220.902 C 353.025 220.474,352.665 218.732,352.454 217.032 C 352.243 215.332,351.808 213.639,351.488 213.270 C 351.167 212.902,350.808 211.828,350.689 210.884 C 350.569 209.941,350.231 208.879,349.936 208.525 C 349.641 208.170,349.102 206.872,348.737 205.640 C 347.672 202.043,346.817 199.948,345.981 198.885 C 345.551 198.339,345.200 197.555,345.200 197.142 C 345.200 196.730,344.840 196.084,344.400 195.707 C 343.960 195.330,343.600 194.761,343.600 194.443 C 343.600 193.033,336.960 181.675,335.628 180.806 C 335.454 180.693,335.030 180.060,334.685 179.400 C 334.341 178.740,333.457 177.570,332.722 176.800 C 331.987 176.030,330.848 174.605,330.192 173.633 C 327.909 170.249,315.283 158.000,314.079 158.000 C 313.866 158.000,313.397 157.550,313.037 157.000 C 312.676 156.450,312.189 156.000,311.953 156.000 C 311.718 156.000,310.507 155.229,309.262 154.287 C 307.291 152.795,306.186 152.055,303.159 150.200 C 302.305 149.677,300.588 148.545,298.600 147.194 C 297.720 146.597,296.550 145.973,296.000 145.809 C 295.450 145.644,293.189 144.630,290.977 143.555 C 288.764 142.480,286.618 141.600,286.208 141.600 C 285.798 141.600,285.147 141.314,284.761 140.964 C 284.375 140.615,283.460 140.172,282.729 139.980 C 280.414 139.372,276.238 137.947,275.200 137.410 C 274.650 137.125,273.570 136.770,272.800 136.620 C 272.030 136.469,269.949 135.996,268.176 135.567 C 266.403 135.137,262.803 134.604,260.176 134.380 C 257.549 134.157,253.600 133.819,251.400 133.629 C 246.259 133.187,238.471 133.204,235.400 133.665 M252.979 135.213 C 257.391 135.436,261.797 135.865,262.837 136.174 C 263.870 136.481,265.770 136.855,267.058 137.004 C 269.477 137.286,274.449 138.717,277.600 140.039 C 278.590 140.454,280.293 140.985,281.384 141.217 C 282.475 141.450,283.555 141.787,283.784 141.965 C 284.013 142.144,284.740 142.417,285.400 142.574 C 286.726 142.887,297.447 148.165,298.400 148.973 C 298.730 149.252,300.602 150.414,302.561 151.554 C 304.519 152.694,306.949 154.318,307.961 155.163 C 308.972 156.007,310.385 156.825,311.100 156.981 C 311.840 157.142,312.400 157.514,312.400 157.844 C 312.400 158.164,312.715 158.541,313.100 158.682 C 315.519 159.571,331.737 176.978,333.922 181.032 C 334.209 181.564,334.614 182.000,334.822 182.000 C 335.030 182.000,335.200 182.225,335.200 182.501 C 335.200 182.776,336.325 184.685,337.700 186.743 C 340.706 191.240,341.814 193.274,342.417 195.400 C 342.667 196.280,343.220 197.377,343.647 197.837 C 344.073 198.298,344.961 200.098,345.619 201.837 C 346.278 203.577,346.993 205.360,347.208 205.800 C 347.792 206.994,349.187 211.128,349.773 213.400 C 350.056 214.500,350.583 216.300,350.942 217.400 C 354.723 228.967,355.642 255.471,352.632 266.149 C 352.314 267.277,351.772 269.550,351.427 271.200 C 350.533 275.485,349.396 279.686,348.861 280.687 C 348.607 281.160,348.400 281.927,348.400 282.392 C 348.400 282.857,347.950 284.082,347.400 285.115 C 346.850 286.148,346.400 287.250,346.400 287.562 C 346.400 287.875,345.481 290.036,344.357 292.365 C 343.233 294.694,341.932 297.410,341.464 298.400 C 340.997 299.390,339.979 301.100,339.202 302.200 C 338.424 303.300,337.325 304.920,336.758 305.800 C 336.192 306.680,335.384 307.914,334.964 308.543 C 334.544 309.171,333.834 310.284,333.387 311.014 C 332.940 311.745,331.382 313.596,329.925 315.127 C 328.468 316.658,327.089 318.261,326.860 318.688 C 326.500 319.360,319.768 326.238,318.315 327.418 C 318.032 327.648,316.360 329.092,314.600 330.626 C 312.840 332.160,310.950 333.638,310.400 333.910 C 309.850 334.182,308.761 334.809,307.980 335.303 C 306.625 336.159,305.911 336.731,303.792 338.659 C 303.272 339.132,301.892 340.006,300.724 340.602 C 299.556 341.198,298.150 341.934,297.600 342.237 C 297.050 342.540,296.307 342.791,295.949 342.794 C 295.591 342.797,295.082 343.061,294.817 343.380 C 294.552 343.698,293.675 344.174,292.868 344.438 C 292.061 344.701,290.971 345.250,290.446 345.658 C 289.921 346.066,289.166 346.400,288.768 346.400 C 288.370 346.400,286.819 347.011,285.322 347.758 C 283.825 348.505,281.520 349.332,280.200 349.598 C 278.880 349.863,277.210 350.355,276.488 350.691 C 275.095 351.340,273.400 351.698,262.600 353.624 C 250.543 355.775,245.667 353.413,245.276 345.235 C 245.040 340.306,246.003 338.660,252.394 333.071 C 253.607 332.010,255.073 330.440,255.652 329.583 C 256.230 328.725,257.760 326.951,259.052 325.640 C 260.343 324.329,261.670 322.925,262.000 322.521 C 263.130 321.134,265.240 318.200,266.520 316.235 C 267.224 315.154,268.278 313.534,268.863 312.635 C 270.592 309.975,273.734 304.379,274.947 301.800 C 275.568 300.480,276.329 298.922,276.638 298.338 C 276.947 297.754,277.200 297.085,277.200 296.850 C 277.200 296.616,277.629 295.473,278.153 294.312 C 278.677 293.150,279.242 291.750,279.409 291.200 C 279.576 290.650,280.047 289.573,280.456 288.806 C 280.865 288.039,281.204 286.869,281.209 286.206 C 281.214 285.543,281.575 284.212,282.012 283.248 C 282.449 282.285,282.911 280.755,283.039 279.848 C 283.166 278.942,283.514 277.390,283.810 276.400 C 286.739 266.630,286.276 237.160,283.022 226.200 C 282.133 223.205,281.252 220.413,280.563 218.400 C 280.223 217.410,279.769 215.889,279.553 215.020 C 279.337 214.150,277.999 211.070,276.580 208.174 C 275.161 205.278,274.000 202.746,274.000 202.548 C 274.000 201.924,272.340 199.031,271.554 198.284 C 271.139 197.891,270.800 197.234,270.800 196.824 C 270.800 195.538,260.999 181.522,257.760 178.175 C 256.858 177.243,255.432 175.641,254.591 174.615 C 253.750 173.589,252.598 172.504,252.031 172.204 C 251.464 171.905,249.470 170.276,247.600 168.585 C 245.730 166.895,243.218 164.872,242.019 164.091 C 240.819 163.310,239.271 162.156,238.578 161.525 C 237.299 160.361,232.953 157.600,232.401 157.600 C 232.234 157.600,231.878 157.335,231.609 157.011 C 231.340 156.686,230.494 156.304,229.729 156.160 C 227.110 155.669,222.971 150.913,222.423 147.764 C 221.759 143.953,222.779 140.658,225.295 138.489 C 225.989 137.890,226.948 136.994,227.427 136.497 C 228.864 135.006,238.879 134.502,252.979 135.213 M325.200 141.524 C 325.200 141.756,325.551 142.057,325.980 142.194 C 326.408 142.330,326.864 142.772,326.993 143.177 C 327.121 143.582,327.576 144.005,328.004 144.117 C 328.638 144.283,328.580 144.125,327.691 143.260 C 325.989 141.607,325.200 141.057,325.200 141.524 M355.331 143.800 C 355.333 145.340,355.405 145.921,355.492 145.091 C 355.579 144.261,355.577 143.001,355.489 142.291 C 355.400 141.581,355.329 142.260,355.331 143.800 M170.576 151.300 C 167.930 154.083,166.617 155.600,166.854 155.600 C 166.960 155.600,168.354 154.160,169.951 152.400 C 173.222 148.795,173.615 148.104,170.576 151.300 M133.852 151.300 C 133.509 152.581,133.618 159.608,134.000 160.800 C 134.195 161.410,134.336 159.577,134.360 156.100 C 134.400 150.425,134.311 149.587,133.852 151.300 M337.789 153.626 C 338.016 154.220,341.076 156.017,341.800 155.983 C 342.020 155.973,341.480 155.591,340.600 155.135 C 339.720 154.678,338.677 154.021,338.283 153.675 C 337.702 153.165,337.608 153.155,337.789 153.626 M344.105 156.287 C 344.714 156.379,345.614 156.377,346.105 156.282 C 346.597 156.187,346.100 156.111,345.000 156.114 C 343.900 156.117,343.497 156.195,344.105 156.287 M161.369 168.536 C 161.110 169.211,161.440 170.000,161.981 170.000 C 162.611 170.000,162.752 168.858,162.181 168.384 C 161.730 168.010,161.559 168.042,161.369 168.536 M155.915 171.903 C 155.538 172.506,154.919 173.450,154.539 174.000 C 153.961 174.836,154.048 174.803,155.068 173.800 C 155.739 173.140,156.416 172.195,156.571 171.700 C 156.946 170.507,156.748 170.568,155.915 171.903 M135.200 171.486 C 135.200 172.077,137.350 175.294,138.238 176.031 C 138.838 176.529,138.232 175.489,136.009 172.206 C 135.564 171.549,135.200 171.225,135.200 171.486 M252.278 221.638 C 248.295 222.219,245.309 225.199,241.897 232.000 C 241.400 232.990,240.136 234.970,239.088 236.400 C 238.039 237.830,236.781 239.573,236.291 240.273 C 233.848 243.765,231.575 246.398,227.292 250.700 C 221.309 256.709,214.173 263.200,213.549 263.200 C 213.284 263.200,213.171 263.305,213.299 263.432 C 213.776 263.909,215.204 262.849,220.984 257.731 C 221.855 256.960,223.403 255.905,224.426 255.387 C 225.699 254.742,226.454 254.036,226.823 253.145 C 227.353 251.864,229.046 249.724,232.633 245.800 C 236.204 241.893,241.667 233.918,244.141 229.000 C 246.516 224.280,250.162 222.007,255.367 222.002 C 256.668 222.001,257.658 221.934,257.567 221.853 C 257.109 221.450,254.343 221.337,252.278 221.638 M259.647 223.166 C 262.108 225.101,264.573 228.504,264.865 230.368 C 265.137 232.109,265.145 232.085,265.041 229.880 C 264.921 227.352,262.947 224.733,259.900 223.058 L 258.600 222.343 259.647 223.166 M265.371 245.168 C 265.355 251.640,265.477 256.590,265.643 256.168 C 266.013 255.224,266.031 238.163,265.665 235.400 C 265.519 234.300,265.387 238.696,265.371 245.168 M53.200 244.173 C 52.650 244.470,51.390 244.945,50.400 245.227 C 45.970 246.490,43.787 251.966,44.978 258.825 C 45.301 260.681,45.769 263.910,46.019 266.000 C 46.269 268.090,46.721 270.078,47.024 270.417 C 47.326 270.756,47.693 272.106,47.839 273.417 C 47.986 274.728,48.372 276.430,48.698 277.200 C 49.024 277.970,49.524 279.410,49.810 280.400 C 50.095 281.390,50.342 281.840,50.359 281.400 C 50.398 280.372,47.840 270.793,47.254 269.774 C 46.436 268.351,45.129 254.302,45.614 252.139 C 47.707 242.799,57.582 241.908,65.379 250.356 C 68.569 253.813,75.401 260.000,76.028 260.000 C 76.212 260.000,77.676 261.179,79.281 262.619 C 80.887 264.060,82.560 265.420,83.000 265.642 C 83.572 265.930,83.514 265.801,82.800 265.190 C 82.250 264.720,80.640 263.314,79.222 262.067 C 77.803 260.820,75.643 258.941,74.422 257.892 C 73.200 256.843,70.624 254.503,68.699 252.692 C 66.773 250.881,64.881 249.130,64.495 248.800 C 64.109 248.470,63.375 247.660,62.864 247.000 C 60.737 244.251,55.752 242.793,53.200 244.173 M264.116 262.672 C 263.630 264.832,263.113 267.401,262.968 268.379 C 262.822 269.357,262.022 272.147,261.191 274.579 C 260.359 277.011,259.569 279.900,259.436 281.000 L 259.193 283.000 259.764 281.200 C 261.975 274.225,263.278 269.474,263.600 267.201 C 263.806 265.747,264.260 263.875,264.609 263.040 C 264.958 262.205,265.189 260.896,265.122 260.132 C 265.027 259.050,264.805 259.611,264.116 262.672 M209.034 266.500 C 200.978 271.906,199.269 272.868,196.400 273.606 C 194.233 274.164,186.222 277.955,186.539 278.273 C 186.663 278.396,188.797 277.501,191.282 276.285 C 193.767 275.068,196.430 273.949,197.200 273.798 C 199.563 273.336,207.817 268.468,211.400 265.424 C 213.270 263.835,212.448 264.209,209.034 266.500 M85.517 267.684 C 86.680 268.890,87.905 269.683,89.317 270.143 C 90.463 270.516,92.390 271.444,93.600 272.206 C 95.757 273.564,102.866 277.200,103.364 277.200 C 103.503 277.200,105.229 277.830,107.200 278.600 C 109.171 279.370,111.012 279.996,111.291 279.991 C 112.138 279.975,103.114 276.220,101.240 275.809 C 100.588 275.666,99.841 275.290,99.579 274.974 C 99.317 274.658,98.896 274.400,98.644 274.400 C 98.392 274.400,97.545 273.965,96.763 273.433 C 95.980 272.901,94.003 271.775,92.370 270.930 C 90.736 270.085,88.590 268.837,87.600 268.156 C 84.288 265.879,83.632 265.730,85.517 267.684 M183.200 279.191 C 182.650 279.369,181.570 279.812,180.800 280.177 C 178.771 281.137,180.949 280.654,183.249 279.633 C 185.033 278.842,185.007 278.608,183.200 279.191 M113.600 280.765 C 115.300 281.446,119.191 282.258,118.779 281.845 C 118.559 281.626,112.571 279.989,112.107 280.022 C 111.938 280.034,112.610 280.368,113.600 280.765 M174.000 281.653 C 172.350 282.096,170.730 282.692,170.400 282.977 C 169.702 283.581,159.014 284.764,150.400 285.190 L 144.600 285.477 151.000 285.357 C 160.682 285.176,169.508 284.326,171.200 283.412 C 171.970 282.996,174.130 282.247,176.000 281.747 C 177.911 281.236,178.875 280.840,178.200 280.843 C 177.540 280.846,175.650 281.211,174.000 281.653 M50.439 282.800 C 50.444 283.130,51.154 284.840,52.018 286.600 C 52.882 288.360,53.488 289.350,53.365 288.800 C 53.061 287.445,50.429 282.046,50.439 282.800 M122.105 282.982 C 123.988 283.707,128.351 284.582,128.640 284.293 C 128.843 284.090,125.106 283.158,122.000 282.637 L 120.600 282.402 122.105 282.982 M257.715 284.587 C 256.924 285.547,256.391 286.810,256.086 288.445 C 255.830 289.822,255.115 291.686,254.436 292.743 C 253.778 293.770,252.960 295.277,252.619 296.093 C 251.827 297.989,248.779 302.765,245.314 307.539 C 243.821 309.595,242.330 311.780,242.000 312.394 C 241.670 313.007,240.460 314.475,239.312 315.655 C 230.138 325.080,226.315 328.821,224.541 330.111 C 223.409 330.934,222.383 331.867,222.262 332.184 C 222.140 332.501,221.356 333.135,220.520 333.593 C 219.501 334.151,219.329 334.341,220.000 334.168 C 220.550 334.026,221.720 333.222,222.600 332.382 C 225.050 330.042,228.728 327.200,229.307 327.200 C 229.591 327.200,230.934 325.895,232.289 324.300 C 233.645 322.705,236.384 319.717,238.377 317.660 C 240.370 315.602,242.000 313.694,242.000 313.420 C 242.000 313.145,242.585 312.150,243.300 311.209 C 247.277 305.973,250.576 301.049,251.881 298.400 C 252.694 296.750,253.849 294.590,254.449 293.600 C 255.049 292.610,256.091 290.287,256.765 288.437 C 257.439 286.587,258.291 284.741,258.659 284.334 C 259.027 283.928,259.230 283.497,259.110 283.377 C 258.990 283.257,258.363 283.801,257.715 284.587 M130.711 284.693 C 131.651 284.778,133.091 284.777,133.911 284.691 C 134.730 284.605,133.960 284.536,132.200 284.537 C 130.440 284.539,129.770 284.609,130.711 284.693 M136.500 285.087 C 137.105 285.178,138.095 285.178,138.700 285.087 C 139.305 284.995,138.810 284.920,137.600 284.920 C 136.390 284.920,135.895 284.995,136.500 285.087 M53.621 290.200 C 53.635 290.791,56.792 296.682,56.796 296.125 C 56.798 295.864,56.083 294.334,55.206 292.725 C 54.329 291.116,53.616 289.980,53.621 290.200 M56.825 297.471 C 56.811 297.951,57.096 298.639,57.458 299.000 C 58.268 299.811,59.463 301.576,60.977 304.200 C 61.611 305.300,62.470 306.650,62.884 307.200 C 63.298 307.750,64.697 309.640,65.991 311.400 C 67.286 313.160,68.852 315.290,69.472 316.133 C 70.783 317.914,80.126 327.329,82.043 328.800 C 82.760 329.350,83.988 330.398,84.773 331.130 C 86.062 332.331,88.905 334.307,94.434 337.845 C 95.504 338.529,97.011 339.571,97.783 340.160 C 98.555 340.749,99.865 341.471,100.694 341.764 C 101.522 342.058,103.256 342.870,104.546 343.569 C 105.837 344.268,106.976 344.757,107.078 344.656 C 107.315 344.418,104.383 342.699,101.800 341.561 C 100.700 341.077,99.260 340.277,98.600 339.785 C 97.940 339.292,96.410 338.400,95.200 337.803 C 93.990 337.205,92.460 336.216,91.800 335.604 C 91.140 334.993,89.664 333.966,88.519 333.323 C 83.597 330.557,69.602 316.346,65.436 309.884 C 64.536 308.488,63.294 306.746,62.676 306.013 C 62.057 305.280,61.017 303.622,60.364 302.329 C 59.711 301.035,58.813 299.613,58.368 299.168 C 57.923 298.723,57.400 297.963,57.205 297.480 L 56.851 296.600 56.825 297.471 M216.680 335.659 C 215.987 336.351,214.516 337.461,213.410 338.126 C 212.305 338.790,211.106 339.583,210.746 339.887 C 210.386 340.192,207.961 341.331,205.355 342.419 C 202.406 343.650,200.163 344.861,199.409 345.627 C 198.366 346.688,199.037 346.437,204.293 343.802 C 207.644 342.121,210.492 340.575,210.620 340.367 C 210.749 340.158,211.427 339.714,212.127 339.379 C 215.043 337.983,216.032 337.322,217.335 335.899 C 218.996 334.086,218.452 333.886,216.680 335.659 M110.000 346.088 C 111.430 346.770,113.155 347.594,113.834 347.919 C 114.513 348.245,115.323 348.410,115.634 348.287 C 116.046 348.124,116.006 348.055,115.486 348.032 C 115.093 348.014,114.356 347.728,113.848 347.395 C 112.929 346.792,108.052 344.778,107.624 344.824 C 107.501 344.837,108.570 345.406,110.000 346.088 M118.200 349.172 C 122.084 350.590,125.430 351.558,128.000 352.009 C 129.430 352.260,131.632 352.721,132.894 353.033 C 135.782 353.747,137.084 353.721,135.091 352.990 C 134.261 352.685,132.101 352.234,130.291 351.988 C 128.481 351.743,124.896 350.835,122.324 349.971 C 117.689 348.414,114.355 347.768,118.200 349.172 M188.600 349.435 C 186.926 350.118,186.616 350.337,187.575 350.159 C 189.166 349.863,192.493 348.457,191.600 348.456 C 191.270 348.456,189.920 348.897,188.600 349.435 M182.400 351.417 L 180.200 351.923 181.824 351.961 C 182.716 351.983,183.796 351.736,184.224 351.413 C 184.651 351.090,184.910 350.845,184.800 350.868 C 184.690 350.891,183.610 351.138,182.400 351.417 M177.600 352.478 C 177.050 352.714,175.700 353.137,174.600 353.419 C 173.433 353.718,173.016 353.938,173.600 353.947 C 174.150 353.956,175.860 353.532,177.400 353.007 C 178.940 352.481,179.840 352.051,179.400 352.051 C 178.960 352.051,178.150 352.243,177.600 352.478 M168.305 354.283 C 168.802 354.379,169.522 354.375,169.905 354.275 C 170.287 354.175,169.880 354.096,169.000 354.101 C 168.120 354.105,167.807 354.187,168.305 354.283 M144.800 354.921 C 147.635 355.355,162.195 355.362,163.917 354.930 C 164.705 354.733,160.686 354.597,153.917 354.592 C 146.339 354.587,143.327 354.695,144.800 354.921 " stroke="none" fill="#203474" fill-rule="evenodd"></path></g></svg>